<?xml version="1.0" encoding="utf-8"?>
<!-- Generator: Adobe Illustrator 18.0.0, SVG Export Plug-In . SVG Version: 6.00 Build 0)  -->
<!DOCTYPE svg PUBLIC "-//W3C//DTD SVG 1.1//EN" "http://www.w3.org/Graphics/SVG/1.1/DTD/svg11.dtd">
<svg version="1.1" id="Layer_1" xmlns="http://www.w3.org/2000/svg" xmlns:xlink="http://www.w3.org/1999/xlink" x="0px" y="0px"
	 viewBox="0 0 841.9 595.3" enable-background="new 0 0 841.9 595.3" xml:space="preserve">
<g>
	<path fill="none" stroke="#000000" stroke-miterlimit="10" d="M324.4,297.5c0-10.9,6-20.5,14.8-25.6c4.4-2.6,9.6-4.1,15.1-4.1
		c5.5,0,10.7,1.5,15.1,4.2c8.8,5.2,14.6,14.8,14.6,25.7c0,0.2,0,0.3,0,0.5c-0.2,10.9-6.3,20.4-15.2,25.4c-4.3,2.4-9.3,3.8-14.6,3.8
		c-5.3,0-10.3-1.4-14.6-3.9c-8.9-5.1-15-14.6-15.1-25.5C324.4,297.9,324.4,297.7,324.4,297.5z"/>
	<path fill="none" stroke="#000000" stroke-miterlimit="10" d="M375,334.5c12.6-7.2,21.1-20.7,21.1-36.2l123.4,0.5l117.7,0.5
		c-0.2,52.4-14.6,101.4-39.5,143.4c-24.9,42-60.4,77-102.8,101.3l-58.5-102.1L375,334.5z"/>
	<path fill="none" stroke="#000000" stroke-miterlimit="10" d="M71.2,297.3l117.7,0.3l123.4,0.3c0,15.5,8.4,29.1,20.9,36.4
		l-62.2,106.8l-59.2,101.7C127.5,493.7,70.8,402.1,71.2,297.3z"/>
	<path fill="none" stroke="#000000" stroke-miterlimit="10" d="M213.4,52.7c41.7-24,90.1-37.6,141.7-37.5
		c51.6,0.2,99.9,14.1,141.5,38.4l-59.2,101.6l-62.1,106.6c-6.2-3.6-13.3-5.7-20.9-5.7c-7.6,0-14.8,2-21,5.5l-61.4-107.1L213.4,52.7z
		"/>
</g>
</svg>
