<?xml version="1.0" encoding="utf-8"?>
<!-- Generator: Adobe Illustrator 18.0.0, SVG Export Plug-In . SVG Version: 6.00 Build 0)  -->
<!DOCTYPE svg PUBLIC "-//W3C//DTD SVG 1.1//EN" "http://www.w3.org/Graphics/SVG/1.1/DTD/svg11.dtd">
<svg version="1.1" id="Layer_1" xmlns="http://www.w3.org/2000/svg" xmlns:xlink="http://www.w3.org/1999/xlink" x="0px" y="0px"
	 viewBox="0 0 841.9 595.3" enable-background="new 0 0 841.9 595.3" xml:space="preserve">
<symbol  id="New_Symbol" viewBox="-0.5 -85 1 170">
	
		<line fill="none" stroke="#000000" stroke-linecap="round" stroke-linejoin="round" stroke-miterlimit="10" x1="0" y1="84.5" x2="0" y2="-84.5"/>
</symbol>
<g>
	<g>
		
			<path fill="none" stroke="#000000" stroke-width="2.8346" stroke-linecap="round" stroke-linejoin="round" stroke-miterlimit="10" d="
			M390.1,383.7c10.7,3.5,19.8,9.6,27.2,17.8c3.6,4.1,6.7,8.6,9.3,13.5c2.5,4.8,4.6,9.9,6.1,15c3,10.2,3.9,20.3,3.9,27.8
			c0,3.7-0.2,6.8-0.4,9c-0.2,2.1-0.4,3.3-0.4,3.3s-1.1,0.5-3.1,1.4c-2,0.8-4.8,2-8.4,3.1c-7.2,2.3-17,4.5-27.7,4.7
			c-2.7,0-5.3,0-8-0.2c-2.7-0.2-5.5-0.6-8.2-1.1c-5.3-0.9-10.7-2.6-15.7-4.8c-5-2.2-9.7-5.1-13.9-8.5c-4.2-3.5-8-7.5-11.3-12"/>
	</g>
	<g>
		
			<path fill="none" stroke="#000000" stroke-width="2.8346" stroke-linecap="round" stroke-linejoin="round" stroke-miterlimit="10" d="
			M338.8,453.3c3.3,4.6,5.9,9.5,7.8,14.5c1.9,5.1,3.1,10.4,3.7,15.9c0.6,5.5,0.3,10.9-0.4,16.4c-0.8,5.4-2.2,10.7-3.9,15.8
			c-3.6,9.9-8.7,18.7-13.2,24.7c-2.2,3-4.2,5.4-5.6,7.1c-1.4,1.6-2.3,2.4-2.3,2.4s-1.2-0.2-3.3-0.7c-2.1-0.5-5.1-1.2-8.6-2.4
			c-3.6-1.2-7.6-2.7-12-4.8c-2.2-1-4.4-2.2-6.6-3.4c-2.2-1.2-4.4-2.7-6.6-4.2c-2.2-1.5-4.3-3.1-6.4-4.9c-2.1-1.8-4.1-3.7-6-5.7
			c-3.8-3.9-7.1-8.4-9.9-13.1c-2.7-4.7-4.8-9.8-6.2-15.1c-1.4-5.3-2.1-10.8-2.1-16.4"/>
	</g>
	<g>
		
			<path fill="none" stroke="#000000" stroke-width="2.8346" stroke-linecap="round" stroke-linejoin="round" stroke-miterlimit="10" d="
			M256.3,479.4c0,5.6-0.8,11.1-2.2,16.4c-1.4,5.2-3.6,10.3-6.4,15c-2.8,4.8-6.1,9-10,13c-3.8,4-8,7.3-12.4,10.5
			c-4.4,2.9-8.9,5.5-13.2,7.5c-4.3,1.9-8.4,3.6-12,4.7c-7.1,2.2-12,3.1-12,3.1s-3.4-3.6-7.8-9.6c-2.2-3.1-4.5-6.8-6.8-10.9
			c-2.3-4.2-4.4-9-6.2-13.9c-1.7-5.1-3.1-10.3-3.8-15.8c-0.7-5.5-0.9-10.9-0.3-16.4c0.6-5.5,1.8-10.8,3.8-15.8
			c1.9-5.1,4.7-10,7.9-14.5"/>
	</g>
	<g>
		
			<path fill="none" stroke="#000000" stroke-width="2.8346" stroke-linecap="round" stroke-linejoin="round" stroke-miterlimit="10" d="
			M174.2,452.1c-3.3,4.5-7.1,8.5-11.4,11.9c-4.3,3.4-9,6.3-14,8.4c-5,2.1-10.4,3.8-15.7,4.7c-2.7,0.5-5.4,0.8-8.2,1
			c-2.7,0.2-5.4,0.2-8,0.1c-2.6-0.1-5.3-0.2-7.8-0.5c-2.5-0.3-5-0.7-7.3-1.1c-4.8-0.8-8.9-2.1-12.5-3.2c-3.6-1.1-6.4-2.3-8.4-3.2
			c-2-0.9-3.1-1.4-3.1-1.4s-0.2-1.2-0.4-3.3c-0.2-2.2-0.3-5.3-0.3-9c0-7.5,1-17.6,4.1-27.7c1.6-5.1,3.6-10.2,6.2-15
			c2.7-4.9,5.7-9.4,9.4-13.4c3.7-4.1,7.8-7.6,12.4-10.6c4.6-3,9.6-5.3,14.9-7.1"/>
	</g>
	<g>
		
			<path fill="none" stroke="#000000" stroke-width="2.8346" stroke-linecap="round" stroke-linejoin="round" stroke-miterlimit="10" d="
			M123.9,381.7c-5.3,1.7-10.8,2.7-16.2,3c-5.5,0.3-11-0.2-16.3-1.4c-5.3-1.2-10.6-3-15.5-5.4c-2.5-1.2-4.9-2.5-7.2-4
			c-2.3-1.4-4.5-3-6.6-4.6c-8.5-6.4-15.1-14.1-19.5-20.2c-2.3-3-3.8-5.7-4.9-7.5c-1.1-1.9-1.7-2.9-1.7-2.9s0.6-1.1,1.6-2.9
			c1.2-1.8,2.9-4.5,5-7.5c4.4-6,11.2-13.6,19.6-20c4.2-3.2,9-6.1,13.8-8.5c5-2.3,10.2-4.2,15.5-5.3c10.8-2.3,21.8-1.7,32.5,1.8"/>
	</g>
	<g>
		
			<path fill="none" stroke="#000000" stroke-width="2.8346" stroke-linecap="round" stroke-linejoin="round" stroke-miterlimit="10" d="
			M124.5,295.2c-10.7-3.5-19.8-9.6-27.2-17.8c-3.6-4.1-6.7-8.6-9.3-13.5c-2.5-4.8-4.6-9.9-6.1-15c-3-10.2-3.9-20.3-3.9-27.8
			c0-3.7,0.2-6.8,0.4-9c0.2-2.1,0.4-3.3,0.4-3.3s1.1-0.5,3.1-1.4c2-0.8,4.8-2,8.4-3.1c7.2-2.3,17-4.5,27.7-4.7c2.7,0,5.3,0,8,0.2
			c2.7,0.2,5.5,0.6,8.2,1.1c5.3,0.9,10.7,2.6,15.7,4.8c5,2.2,9.7,5.1,13.9,8.5c4.2,3.5,8,7.5,11.3,12"/>
	</g>
	<g>
		
			<path fill="none" stroke="#000000" stroke-width="2.8346" stroke-linecap="round" stroke-linejoin="round" stroke-miterlimit="10" d="
			M175.9,225.6c-3.3-4.6-5.9-9.5-7.8-14.5c-1.9-5.1-3.1-10.4-3.7-15.9c-0.6-5.5-0.3-10.9,0.4-16.4c0.8-5.4,2.2-10.7,3.9-15.8
			c3.6-9.9,8.7-18.7,13.2-24.7c2.2-3,4.2-5.4,5.6-7.1c1.4-1.6,2.3-2.4,2.3-2.4s1.2,0.2,3.3,0.7c2.1,0.5,5.1,1.2,8.6,2.4
			c3.6,1.2,7.6,2.7,12,4.8c2.2,1,4.4,2.2,6.6,3.4c2.2,1.2,4.4,2.7,6.6,4.2c2.2,1.5,4.3,3.1,6.4,4.9c2.1,1.8,4.1,3.7,6,5.7
			c3.8,3.9,7.1,8.4,9.9,13.1c2.7,4.7,4.8,9.8,6.2,15.1c1.4,5.3,2.1,10.8,2.1,16.4"/>
	</g>
	<g>
		
			<path fill="none" stroke="#000000" stroke-width="2.8346" stroke-linecap="round" stroke-linejoin="round" stroke-miterlimit="10" d="
			M258.4,199.4c0-5.6,0.8-11.1,2.2-16.4c1.4-5.2,3.6-10.3,6.4-15c2.8-4.8,6.1-9,10-13c3.8-4,8-7.3,12.4-10.5
			c4.4-2.9,8.9-5.5,13.2-7.5c4.3-1.9,8.4-3.6,12-4.7c7.1-2.2,12-3.1,12-3.1s3.4,3.6,7.8,9.6c2.2,3.1,4.5,6.8,6.8,10.9
			c2.3,4.2,4.4,9,6.2,13.9c1.7,5.1,3.1,10.3,3.8,15.8c0.7,5.5,0.9,10.9,0.3,16.4c-0.6,5.5-1.8,10.8-3.8,15.8
			c-1.9,5.1-4.7,10-7.9,14.5"/>
	</g>
	<g>
		
			<path fill="none" stroke="#000000" stroke-width="2.8346" stroke-linecap="round" stroke-linejoin="round" stroke-miterlimit="10" d="
			M340.5,226.8c3.3-4.5,7.1-8.5,11.4-11.9c4.3-3.4,9-6.3,14-8.4c5-2.1,10.4-3.8,15.7-4.7c2.7-0.5,5.4-0.8,8.2-1
			c2.7-0.2,5.4-0.2,8-0.1c2.6,0.1,5.3,0.2,7.8,0.5c2.5,0.3,5,0.7,7.3,1.1c4.8,0.8,8.9,2.1,12.5,3.2c3.6,1.1,6.4,2.3,8.4,3.2
			c2,0.9,3.1,1.4,3.1,1.4s0.2,1.2,0.4,3.3c0.2,2.2,0.3,5.3,0.3,9c0,7.5-1,17.6-4.1,27.7c-1.6,5.1-3.6,10.2-6.2,15
			c-2.7,4.9-5.7,9.4-9.4,13.4c-3.7,4.1-7.8,7.6-12.4,10.6c-4.6,3-9.6,5.3-14.9,7.1"/>
	</g>
	<g>
		
			<path fill="none" stroke="#000000" stroke-width="2.8346" stroke-linecap="round" stroke-linejoin="round" stroke-miterlimit="10" d="
			M390.8,297.2c5.3-1.7,10.8-2.7,16.2-3c5.5-0.3,11,0.2,16.3,1.4c5.3,1.2,10.6,3,15.5,5.4c2.5,1.2,4.9,2.5,7.2,4
			c2.3,1.4,4.5,3,6.6,4.6c8.5,6.4,15.1,14.1,19.5,20.2c2.3,3,3.8,5.7,4.9,7.5c1.1,1.9,1.7,2.9,1.7,2.9s-0.6,1.1-1.6,2.9
			c-1.2,1.8-2.9,4.5-5,7.5c-4.4,6-11.2,13.6-19.6,20c-4.2,3.2-9,6.1-13.8,8.5c-5,2.3-10.2,4.2-15.5,5.3c-10.8,2.3-21.8,1.7-32.5-1.8
			"/>
	</g>
</g>
<g>
	<g>
		
			<path fill="none" stroke="#000000" stroke-width="2.8346" stroke-linecap="round" stroke-linejoin="round" stroke-miterlimit="10" d="
			M343.4,368.8c6.9,2.3,12.9,6.2,17.7,11.6c2.3,2.6,4.3,5.6,6.1,8.8c1.6,3.1,3,6.5,4,9.8c2,6.6,2.6,13.2,2.5,18.1
			c0,2.4-0.1,4.4-0.3,5.9c-0.1,1.4-0.3,2.2-0.3,2.2s-0.7,0.3-2,0.9c-1.3,0.5-3.1,1.3-5.5,2c-4.6,1.5-11.1,2.9-18,3
			c-1.7,0-3.5,0-5.2-0.1c-1.8-0.2-3.6-0.4-5.3-0.7c-3.5-0.6-7-1.7-10.2-3.1c-3.2-1.4-6.3-3.3-9-5.6c-2.8-2.2-5.2-4.9-7.3-7.8"/>
	</g>
	<g>
		
			<path fill="none" stroke="#000000" stroke-width="2.8346" stroke-linecap="round" stroke-linejoin="round" stroke-miterlimit="10" d="
			M310,414c2.1,3,3.8,6.2,5.1,9.5c1.2,3.3,2,6.8,2.4,10.3c0.4,3.6,0.2,7.1-0.3,10.7c-0.5,3.5-1.4,7-2.5,10.3
			c-2.3,6.5-5.7,12.2-8.6,16.1c-1.4,1.9-2.7,3.5-3.6,4.6c-0.9,1-1.5,1.6-1.5,1.6s-0.8-0.1-2.1-0.5c-1.4-0.3-3.3-0.8-5.6-1.6
			c-2.3-0.8-5-1.7-7.8-3.1c-1.4-0.7-2.8-1.4-4.3-2.2c-1.4-0.8-2.9-1.8-4.3-2.7c-1.4-1-2.8-2-4.2-3.2c-1.3-1.2-2.6-2.4-3.9-3.7
			c-2.5-2.5-4.6-5.5-6.4-8.5c-1.8-3-3.1-6.4-4.1-9.8c-0.9-3.4-1.4-7-1.4-10.6"/>
	</g>
	<g>
		
			<path fill="none" stroke="#000000" stroke-width="2.8346" stroke-linecap="round" stroke-linejoin="round" stroke-miterlimit="10" d="
			M256.3,431.1c0,3.6-0.5,7.2-1.4,10.6c-0.9,3.4-2.3,6.7-4.1,9.8c-1.8,3.1-4,5.9-6.5,8.5c-2.5,2.6-5.2,4.8-8.1,6.8
			c-2.8,1.9-5.8,3.6-8.6,4.9c-2.8,1.3-5.5,2.3-7.8,3.1c-4.6,1.4-7.8,2-7.8,2s-2.2-2.3-5.1-6.2c-1.4-2-3-4.4-4.4-7.1
			c-1.5-2.7-2.9-5.8-4-9c-1.1-3.3-2-6.7-2.5-10.3c-0.4-3.6-0.6-7.1-0.2-10.7c0.4-3.6,1.2-7,2.5-10.3c1.3-3.3,3-6.5,5.2-9.4"/>
	</g>
	<g>
		
			<path fill="none" stroke="#000000" stroke-width="2.8346" stroke-linecap="round" stroke-linejoin="round" stroke-miterlimit="10" d="
			M203,413.3c-2.2,2.9-4.6,5.5-7.4,7.8c-2.8,2.2-5.9,4.1-9.1,5.5c-3.2,1.4-6.8,2.5-10.2,3c-1.8,0.3-3.5,0.5-5.3,0.7
			c-1.8,0.1-3.5,0.1-5.2,0.1c-1.7-0.1-3.5-0.1-5.1-0.3c-1.6-0.2-3.2-0.5-4.8-0.7c-3.1-0.5-5.8-1.4-8.1-2.1c-2.4-0.7-4.2-1.5-5.5-2.1
			c-1.3-0.6-2-0.9-2-0.9s-0.1-0.8-0.3-2.2c-0.1-1.4-0.2-3.4-0.2-5.9c0-4.9,0.7-11.4,2.7-18c1.1-3.3,2.3-6.6,4.1-9.8
			c1.7-3.2,3.7-6.1,6.1-8.7c2.4-2.7,5.1-5,8.1-6.9c3-1.9,6.2-3.5,9.7-4.6"/>
	</g>
	<g>
		
			<path fill="none" stroke="#000000" stroke-width="2.8346" stroke-linecap="round" stroke-linejoin="round" stroke-miterlimit="10" d="
			M170.3,367.5c-3.5,1.1-7,1.8-10.6,1.9c-3.6,0.2-7.1-0.1-10.6-0.9c-3.5-0.8-6.9-2-10.1-3.5c-1.6-0.8-3.2-1.6-4.7-2.6
			c-1.5-0.9-2.9-1.9-4.3-3c-5.5-4.2-9.8-9.2-12.7-13.1c-1.5-2-2.5-3.7-3.2-4.9c-0.7-1.2-1.1-1.9-1.1-1.9s0.4-0.7,1.1-1.9
			c0.7-1.2,1.9-2.9,3.3-4.9c2.9-3.9,7.3-8.9,12.8-13c2.8-2.1,5.8-4,9-5.5c3.3-1.5,6.7-2.7,10.1-3.5c7-1.5,14.2-1.1,21.1,1.2"/>
	</g>
	<g>
		
			<path fill="none" stroke="#000000" stroke-width="2.8346" stroke-linecap="round" stroke-linejoin="round" stroke-miterlimit="10" d="
			M170.7,311.3c-6.9-2.3-12.9-6.2-17.7-11.6c-2.3-2.6-4.3-5.6-6.1-8.8c-1.6-3.1-3-6.5-4-9.8c-2-6.6-2.6-13.2-2.5-18.1
			c0-2.4,0.1-4.4,0.3-5.9c0.1-1.4,0.3-2.2,0.3-2.2s0.7-0.3,2-0.9c1.3-0.5,3.1-1.3,5.5-2c4.6-1.5,11.1-2.9,18-3c1.7,0,3.5,0,5.2,0.1
			c1.8,0.2,3.6,0.4,5.3,0.7c3.5,0.6,7,1.7,10.2,3.1c3.2,1.4,6.3,3.3,9,5.6c2.8,2.2,5.2,4.9,7.3,7.8"/>
	</g>
	<g>
		
			<path fill="none" stroke="#000000" stroke-width="2.8346" stroke-linecap="round" stroke-linejoin="round" stroke-miterlimit="10" d="
			M204.1,266c-2.1-3-3.8-6.2-5.1-9.5c-1.2-3.3-2-6.8-2.4-10.3c-0.4-3.6-0.2-7.1,0.3-10.7c0.5-3.5,1.4-7,2.5-10.3
			c2.3-6.5,5.7-12.2,8.6-16.1c1.4-1.9,2.7-3.5,3.6-4.6c0.9-1,1.5-1.6,1.5-1.6s0.8,0.1,2.1,0.5c1.4,0.3,3.3,0.8,5.6,1.6
			c2.3,0.8,5,1.7,7.8,3.1c1.4,0.7,2.8,1.4,4.3,2.2c1.4,0.8,2.9,1.8,4.3,2.7c1.4,1,2.8,2,4.2,3.2c1.3,1.2,2.6,2.4,3.9,3.7
			c2.5,2.5,4.6,5.5,6.4,8.5c1.8,3,3.1,6.4,4.1,9.8c0.9,3.4,1.4,7,1.4,10.6"/>
	</g>
	<g>
		
			<path fill="none" stroke="#000000" stroke-width="2.8346" stroke-linecap="round" stroke-linejoin="round" stroke-miterlimit="10" d="
			M257.7,249c0-3.6,0.5-7.2,1.4-10.6c0.9-3.4,2.3-6.7,4.1-9.8c1.8-3.1,4-5.9,6.5-8.5c2.5-2.6,5.2-4.8,8.1-6.8
			c2.8-1.9,5.8-3.6,8.6-4.9c2.8-1.3,5.5-2.3,7.8-3.1c4.6-1.4,7.8-2,7.8-2s2.2,2.3,5.1,6.2c1.4,2,3,4.4,4.4,7.1c1.5,2.7,2.9,5.8,4,9
			c1.1,3.3,2,6.7,2.5,10.3c0.4,3.6,0.6,7.1,0.2,10.7c-0.4,3.6-1.2,7-2.5,10.3c-1.3,3.3-3,6.5-5.2,9.4"/>
	</g>
	<g>
		
			<path fill="none" stroke="#000000" stroke-width="2.8346" stroke-linecap="round" stroke-linejoin="round" stroke-miterlimit="10" d="
			M311.1,266.8c2.2-2.9,4.6-5.5,7.4-7.8c2.8-2.2,5.9-4.1,9.1-5.5c3.2-1.4,6.8-2.5,10.2-3c1.8-0.3,3.5-0.5,5.3-0.7
			c1.8-0.1,3.5-0.1,5.2-0.1c1.7,0.1,3.5,0.1,5.1,0.3c1.6,0.2,3.2,0.5,4.8,0.7c3.1,0.5,5.8,1.4,8.1,2.1c2.4,0.7,4.2,1.5,5.5,2.1
			c1.3,0.6,2,0.9,2,0.9s0.1,0.8,0.3,2.2c0.1,1.4,0.2,3.4,0.2,5.9c0,4.9-0.7,11.4-2.7,18c-1.1,3.3-2.3,6.6-4.1,9.8
			c-1.7,3.2-3.7,6.1-6.1,8.7c-2.4,2.7-5.1,5-8.1,6.9c-3,1.9-6.2,3.5-9.7,4.6"/>
	</g>
	<g>
		
			<path fill="none" stroke="#000000" stroke-width="2.8346" stroke-linecap="round" stroke-linejoin="round" stroke-miterlimit="10" d="
			M343.8,312.6c3.5-1.1,7-1.8,10.6-1.9c3.6-0.2,7.1,0.1,10.6,0.9c3.5,0.8,6.9,2,10.1,3.5c1.6,0.8,3.2,1.6,4.7,2.6
			c1.5,0.9,2.9,1.9,4.3,3c5.5,4.2,9.8,9.2,12.7,13.1c1.5,2,2.5,3.7,3.2,4.9c0.7,1.2,1.1,1.9,1.1,1.9s-0.4,0.7-1.1,1.9
			c-0.7,1.2-1.9,2.9-3.3,4.9c-2.9,3.9-7.3,8.9-12.8,13c-2.8,2.1-5.8,4-9,5.5c-3.3,1.5-6.7,2.7-10.1,3.5c-7,1.5-14.2,1.1-21.1-1.2"/>
	</g>
</g>
<g>
	<g>
		<g>
			<g>
				<path fill="none" stroke="#000000" stroke-width="2.8346" stroke-linecap="round" stroke-linejoin="round" d="M401.4,388.5
					c0.4,0.1,0.9,0.3,1.3,0.5"/>
				
					<path fill="none" stroke="#000000" stroke-width="2.8346" stroke-linecap="round" stroke-linejoin="round" stroke-dasharray="2.8848,11.5391" d="
					M413.2,393.7c6.6,3.7,12.6,8.5,17.7,14.2c3.9,4.4,7.3,9.4,10.2,14.7c2.7,5.2,5,10.8,6.6,16.3c3.3,11,4.3,22.1,4.2,30.2
					c0,2.3-0.1,4.5-0.2,6.3"/>
				<path fill="none" stroke="#000000" stroke-width="2.8346" stroke-linecap="round" stroke-linejoin="round" d="M451.3,481.1
					c-0.1,0.9-0.2,1.4-0.2,1.4s-0.4,0.2-1.3,0.6"/>
				
					<path fill="none" stroke="#000000" stroke-width="2.8346" stroke-linecap="round" stroke-linejoin="round" stroke-dasharray="2.8856,11.5424" d="
					M439,487.2c-0.2,0-0.3,0.1-0.5,0.1c-7.8,2.5-18.5,4.9-30.1,5.1c-2.9,0-5.8,0-8.7-0.2c-3-0.3-5.9-0.7-8.9-1.2
					c-5.8-1-11.6-2.8-17-5.2c-5.4-2.4-10.5-5.5-15.1-9.3c-2.8-2.3-5.4-4.8-7.8-7.5"/>
				<path fill="none" stroke="#000000" stroke-width="2.8346" stroke-linecap="round" stroke-linejoin="round" d="M347.3,464.6
					c-0.3-0.4-0.6-0.8-0.8-1.1"/>
			</g>
		</g>
	</g>
	<g>
		<g>
			<g>
				<path fill="none" stroke="#000000" stroke-width="2.8346" stroke-linecap="round" stroke-linejoin="round" d="M345.6,464.1
					c0.3,0.4,0.5,0.8,0.8,1.2"/>
				
					<path fill="none" stroke="#000000" stroke-width="2.8346" stroke-linecap="round" stroke-linejoin="round" stroke-dasharray="2.8839,11.5355" d="
					M352.1,475.3c0.7,1.5,1.4,3.1,2,4.7c2.1,5.5,3.4,11.3,4,17.3c0.6,6,0.4,11.9-0.4,17.8c-0.8,5.9-2.3,11.6-4.2,17.1
					c-3.9,10.8-9.5,20.3-14.3,26.9c-1.4,1.9-2.7,3.5-3.8,4.9"/>
				<path fill="none" stroke="#000000" stroke-width="2.8346" stroke-linecap="round" stroke-linejoin="round" d="M331.5,568.4
					c-0.6,0.7-1,1-1,1s-0.5-0.1-1.4-0.3"/>
				
					<path fill="none" stroke="#000000" stroke-width="2.8346" stroke-linecap="round" stroke-linejoin="round" stroke-dasharray="2.8849,11.5394" d="
					M318,566.1c-0.2-0.1-0.3-0.1-0.5-0.2c-3.9-1.3-8.3-2.9-13-5.2c-2.3-1.1-4.7-2.4-7.1-3.7c-2.4-1.3-4.8-3-7.2-4.6
					c-2.4-1.7-4.7-3.4-6.9-5.3c-2.3-2-4.4-4-6.5-6.1c-4.1-4.2-7.8-9.2-10.7-14.3c-3-5.1-5.3-10.6-6.8-16.4c-0.9-3.5-1.6-7-1.9-10.6"
					/>
				<path fill="none" stroke="#000000" stroke-width="2.8346" stroke-linecap="round" stroke-linejoin="round" d="M257,494
					c0-0.5,0-0.9,0-1.4"/>
			</g>
		</g>
	</g>
	<g>
		<g>
			<g>
				<path fill="none" stroke="#000000" stroke-width="2.8346" stroke-linecap="round" stroke-linejoin="round" d="M255.9,492.6
					c0,0.5,0,0.9,0,1.4"/>
				
					<path fill="none" stroke="#000000" stroke-width="2.8346" stroke-linecap="round" stroke-linejoin="round" stroke-dasharray="2.8839,11.5354" d="
					M254.6,505.4c-0.3,1.7-0.7,3.3-1.1,4.9c-1.6,5.7-3.9,11.1-6.9,16.3c-3,5.2-6.7,9.8-10.8,14.2c-4.2,4.3-8.7,8-13.5,11.4
					c-4.7,3.2-9.7,5.9-14.4,8.2c-4.7,2.1-9.2,3.9-13,5.1c-2.2,0.7-4.2,1.3-6,1.7"/>
				<path fill="none" stroke="#000000" stroke-width="2.8346" stroke-linecap="round" stroke-linejoin="round" d="M183.2,568.6
					c-0.9,0.2-1.4,0.3-1.4,0.3s-0.3-0.4-0.9-1"/>
				
					<path fill="none" stroke="#000000" stroke-width="2.8346" stroke-linecap="round" stroke-linejoin="round" stroke-dasharray="2.8839,11.5354" d="
					M173.6,558.8c-0.1-0.1-0.2-0.2-0.3-0.4c-2.4-3.3-4.9-7.4-7.4-11.9c-2.5-4.6-4.8-9.7-6.7-15.1c-1.8-5.6-3.4-11.2-4.1-17.2
					c-0.7-6-1-11.9-0.3-17.8c0.6-5.9,2-11.7,4.1-17.2c1.3-3.3,2.9-6.6,4.7-9.7"/>
				<path fill="none" stroke="#000000" stroke-width="2.8346" stroke-linecap="round" stroke-linejoin="round" d="M166.7,464.7
					c0.3-0.4,0.5-0.8,0.8-1.2"/>
			</g>
		</g>
	</g>
	<g>
		<g>
			<g>
				<path fill="none" stroke="#000000" stroke-width="2.8346" stroke-linecap="round" stroke-linejoin="round" d="M166.7,462.8
					c-0.3,0.4-0.6,0.8-0.9,1.1"/>
				
					<path fill="none" stroke="#000000" stroke-width="2.8346" stroke-linecap="round" stroke-linejoin="round" stroke-dasharray="2.8849,11.5394" d="
					M158.1,472.5c-1.2,1.1-2.5,2.2-3.8,3.3c-4.6,3.7-9.8,6.8-15.2,9.2c-5.4,2.3-11.3,4.1-17.1,5.1c-2.9,0.5-5.9,0.9-8.9,1.1
					c-3,0.2-5.8,0.2-8.7,0.1c-2.9-0.1-5.8-0.2-8.5-0.6c-2.7-0.3-5.4-0.8-7.9-1.2c-5.2-0.9-9.6-2.3-13.6-3.5
					c-2.3-0.7-4.2-1.4-5.9-2.1"/>
				<path fill="none" stroke="#000000" stroke-width="2.8346" stroke-linecap="round" stroke-linejoin="round" d="M63.2,481.6
					c-0.8-0.4-1.3-0.6-1.3-0.6s-0.1-0.5-0.2-1.4"/>
				
					<path fill="none" stroke="#000000" stroke-width="2.8346" stroke-linecap="round" stroke-linejoin="round" stroke-dasharray="2.8839,11.5355" d="
					M61.2,468.1c0-0.2,0-0.3,0-0.5c0-8.1,1.1-19.1,4.4-30.1c1.8-5.6,3.9-11.1,6.8-16.3c2.9-5.3,6.2-10.2,10.2-14.6
					c4-4.4,8.5-8.3,13.5-11.5c3-1.9,6.2-3.7,9.5-5.1"/>
				<path fill="none" stroke="#000000" stroke-width="2.8346" stroke-linecap="round" stroke-linejoin="round" d="M111,387.8
					c0.4-0.2,0.9-0.3,1.3-0.5"/>
			</g>
		</g>
	</g>
	<g>
		<g>
			<g>
				<path fill="none" stroke="#000000" stroke-width="2.8346" stroke-linecap="round" stroke-linejoin="round" d="M112,386.3
					c-0.5,0.1-0.9,0.3-1.4,0.4"/>
				
					<path fill="none" stroke="#000000" stroke-width="2.8346" stroke-linecap="round" stroke-linejoin="round" stroke-dasharray="2.8856,11.5424" d="
					M99.3,389.1c-1.7,0.2-3.3,0.4-5,0.4c-5.9,0.3-11.9-0.2-17.7-1.5c-5.8-1.3-11.6-3.3-16.8-5.9c-2.7-1.3-5.3-2.8-7.8-4.3
					c-2.5-1.6-4.9-3.3-7.2-5c-9.2-7-16.4-15.3-21.2-21.9c-1.4-1.9-2.6-3.6-3.5-5.2"/>
				<path fill="none" stroke="#000000" stroke-width="2.8346" stroke-linecap="round" stroke-linejoin="round" d="M17.2,340.7
					c-0.5-0.8-0.7-1.2-0.7-1.2s0.2-0.4,0.7-1.2"/>
				
					<path fill="none" stroke="#000000" stroke-width="2.8346" stroke-linecap="round" stroke-linejoin="round" stroke-dasharray="2.8848,11.5391" d="
					M23.5,328.6c0.1-0.1,0.2-0.3,0.3-0.4c4.8-6.6,12.1-14.8,21.3-21.8c4.6-3.5,9.8-6.6,15-9.2c5.5-2.5,11.1-4.5,16.9-5.8
					c9.4-2,19-2,28.4,0.1"/>
				<path fill="none" stroke="#000000" stroke-width="2.8346" stroke-linecap="round" stroke-linejoin="round" d="M111,292.9
					c0.5,0.1,0.9,0.3,1.4,0.4"/>
			</g>
		</g>
	</g>
	<g>
		<g>
			<g>
				<path fill="none" stroke="#000000" stroke-width="2.8346" stroke-linecap="round" stroke-linejoin="round" d="M112.7,292.3
					c-0.4-0.1-0.9-0.3-1.3-0.5"/>
				
					<path fill="none" stroke="#000000" stroke-width="2.8346" stroke-linecap="round" stroke-linejoin="round" stroke-dasharray="2.8848,11.5391" d="
					M100.8,287.1c-6.6-3.7-12.6-8.5-17.7-14.2c-3.9-4.4-7.3-9.4-10.2-14.7c-2.7-5.2-5-10.8-6.6-16.3c-3.3-11-4.3-22.1-4.2-30.2
					c0-2.3,0.1-4.5,0.2-6.3"/>
				<path fill="none" stroke="#000000" stroke-width="2.8346" stroke-linecap="round" stroke-linejoin="round" d="M62.7,199.7
					c0.1-0.9,0.2-1.4,0.2-1.4s0.4-0.2,1.3-0.6"/>
				
					<path fill="none" stroke="#000000" stroke-width="2.8346" stroke-linecap="round" stroke-linejoin="round" stroke-dasharray="2.8856,11.5424" d="
					M75,193.5c0.2,0,0.3-0.1,0.5-0.1c7.8-2.5,18.5-4.9,30.1-5.1c2.9,0,5.8,0,8.7,0.2c3,0.3,5.9,0.7,8.9,1.2c5.8,1,11.6,2.8,17,5.2
					c5.4,2.4,10.5,5.5,15.1,9.3c2.8,2.3,5.4,4.8,7.8,7.5"/>
				<path fill="none" stroke="#000000" stroke-width="2.8346" stroke-linecap="round" stroke-linejoin="round" d="M166.7,216.2
					c0.3,0.4,0.6,0.8,0.8,1.1"/>
			</g>
		</g>
	</g>
	<g>
		<g>
			<g>
				<path fill="none" stroke="#000000" stroke-width="2.8346" stroke-linecap="round" stroke-linejoin="round" d="M168.5,216.6
					c-0.3-0.4-0.5-0.8-0.8-1.2"/>
				
					<path fill="none" stroke="#000000" stroke-width="2.8346" stroke-linecap="round" stroke-linejoin="round" stroke-dasharray="2.8839,11.5355" d="
					M161.9,205.5c-0.7-1.5-1.4-3.1-2-4.7c-2.1-5.5-3.4-11.3-4-17.3c-0.6-6-0.4-11.9,0.4-17.8c0.8-5.9,2.3-11.6,4.2-17.1
					c3.9-10.8,9.5-20.3,14.3-26.9c1.4-1.9,2.7-3.5,3.8-4.9"/>
				<path fill="none" stroke="#000000" stroke-width="2.8346" stroke-linecap="round" stroke-linejoin="round" d="M182.5,112.4
					c0.6-0.7,1-1,1-1s0.5,0.1,1.4,0.3"/>
				
					<path fill="none" stroke="#000000" stroke-width="2.8346" stroke-linecap="round" stroke-linejoin="round" stroke-dasharray="2.8849,11.5394" d="
					M196.1,114.6c0.2,0.1,0.3,0.1,0.5,0.2c3.9,1.3,8.3,2.9,13,5.2c2.3,1.1,4.7,2.4,7.1,3.7c2.4,1.3,4.8,3,7.2,4.6
					c2.4,1.7,4.7,3.4,6.9,5.3c2.3,2,4.4,4,6.5,6.1c4.1,4.2,7.8,9.2,10.7,14.3c3,5.1,5.3,10.6,6.8,16.4c0.9,3.5,1.6,7,1.9,10.6"/>
				<path fill="none" stroke="#000000" stroke-width="2.8346" stroke-linecap="round" stroke-linejoin="round" d="M257,186.8
					c0,0.5,0,0.9,0,1.4"/>
			</g>
		</g>
	</g>
	<g>
		<g>
			<g>
				<path fill="none" stroke="#000000" stroke-width="2.8346" stroke-linecap="round" stroke-linejoin="round" d="M258.1,188.2
					c0-0.5,0-0.9,0-1.4"/>
				
					<path fill="none" stroke="#000000" stroke-width="2.8346" stroke-linecap="round" stroke-linejoin="round" stroke-dasharray="2.8839,11.5354" d="
					M259.4,175.3c0.3-1.7,0.7-3.3,1.1-4.9c1.6-5.7,3.9-11.1,6.9-16.3c3-5.2,6.7-9.8,10.8-14.2c4.2-4.3,8.7-8,13.5-11.4
					c4.7-3.2,9.7-5.9,14.4-8.2c4.7-2.1,9.2-3.9,13-5.1c2.2-0.7,4.2-1.3,6-1.7"/>
				<path fill="none" stroke="#000000" stroke-width="2.8346" stroke-linecap="round" stroke-linejoin="round" d="M330.8,112.2
					c0.9-0.2,1.4-0.3,1.4-0.3s0.3,0.4,0.9,1"/>
				
					<path fill="none" stroke="#000000" stroke-width="2.8346" stroke-linecap="round" stroke-linejoin="round" stroke-dasharray="2.8839,11.5354" d="
					M340.4,121.9c0.1,0.1,0.2,0.3,0.3,0.4c2.4,3.3,4.9,7.4,7.4,11.9c2.5,4.6,4.8,9.7,6.7,15.1c1.8,5.6,3.4,11.2,4.1,17.2
					c0.7,6,1,11.9,0.3,17.8c-0.6,5.9-2,11.7-4.1,17.2c-1.3,3.3-2.9,6.6-4.7,9.7"/>
				<path fill="none" stroke="#000000" stroke-width="2.8346" stroke-linecap="round" stroke-linejoin="round" d="M347.3,216.1
					c-0.3,0.4-0.5,0.8-0.8,1.2"/>
			</g>
		</g>
	</g>
	<g>
		<g>
			<g>
				<path fill="none" stroke="#000000" stroke-width="2.8346" stroke-linecap="round" stroke-linejoin="round" d="M347.4,217.9
					c0.3-0.4,0.6-0.8,0.9-1.1"/>
				
					<path fill="none" stroke="#000000" stroke-width="2.8346" stroke-linecap="round" stroke-linejoin="round" stroke-dasharray="2.8849,11.5394" d="
					M356,208.3c1.2-1.1,2.5-2.2,3.8-3.3c4.6-3.7,9.8-6.8,15.2-9.2c5.4-2.3,11.3-4.1,17.1-5.1c2.9-0.5,5.9-0.9,8.9-1.1
					c3-0.2,5.8-0.2,8.7-0.1c2.9,0.1,5.8,0.2,8.5,0.6c2.7,0.3,5.4,0.8,7.9,1.2c5.2,0.9,9.6,2.3,13.6,3.5c2.3,0.7,4.2,1.4,5.9,2.1"/>
				<path fill="none" stroke="#000000" stroke-width="2.8346" stroke-linecap="round" stroke-linejoin="round" d="M450.9,199.2
					c0.8,0.4,1.3,0.6,1.3,0.6s0.1,0.5,0.2,1.4"/>
				
					<path fill="none" stroke="#000000" stroke-width="2.8346" stroke-linecap="round" stroke-linejoin="round" stroke-dasharray="2.8839,11.5355" d="
					M452.9,212.7c0,0.2,0,0.3,0,0.5c0,8.1-1.1,19.1-4.4,30.1c-1.8,5.6-3.9,11.1-6.8,16.3c-2.9,5.3-6.2,10.2-10.2,14.6
					c-4,4.4-8.5,8.3-13.5,11.5c-3,1.9-6.2,3.7-9.5,5.1"/>
				<path fill="none" stroke="#000000" stroke-width="2.8346" stroke-linecap="round" stroke-linejoin="round" d="M403.1,292.9
					c-0.4,0.2-0.9,0.3-1.3,0.5"/>
			</g>
		</g>
	</g>
	<g>
		<g>
			<g>
				<path fill="none" stroke="#000000" stroke-width="2.8346" stroke-linecap="round" stroke-linejoin="round" d="M402.1,294.5
					c0.5-0.1,0.9-0.3,1.4-0.4"/>
				
					<path fill="none" stroke="#000000" stroke-width="2.8346" stroke-linecap="round" stroke-linejoin="round" stroke-dasharray="2.8856,11.5424" d="
					M414.7,291.7c1.7-0.2,3.3-0.4,5-0.4c5.9-0.3,11.9,0.2,17.7,1.5c5.8,1.3,11.6,3.3,16.8,5.9c2.7,1.3,5.3,2.8,7.8,4.3
					c2.5,1.6,4.9,3.3,7.2,5c9.2,7,16.4,15.3,21.2,21.9c1.4,1.9,2.6,3.6,3.5,5.2"/>
				<path fill="none" stroke="#000000" stroke-width="2.8346" stroke-linecap="round" stroke-linejoin="round" d="M496.9,340
					c0.5,0.8,0.7,1.2,0.7,1.2s-0.2,0.4-0.7,1.2"/>
				
					<path fill="none" stroke="#000000" stroke-width="2.8346" stroke-linecap="round" stroke-linejoin="round" stroke-dasharray="2.8848,11.5391" d="
					M490.6,352.2c-0.1,0.1-0.2,0.3-0.3,0.4c-4.8,6.6-12.1,14.8-21.3,21.8c-4.6,3.5-9.8,6.6-15,9.2c-5.5,2.5-11.1,4.5-16.9,5.8
					c-9.4,2-19,2-28.4-0.1"/>
				<path fill="none" stroke="#000000" stroke-width="2.8346" stroke-linecap="round" stroke-linejoin="round" d="M403.1,387.8
					c-0.5-0.1-0.9-0.3-1.4-0.4"/>
			</g>
		</g>
	</g>
</g>
<g>
	<g>
		
			<path fill="none" stroke="#000000" stroke-width="2.8346" stroke-linecap="round" stroke-linejoin="round" stroke-miterlimit="10" d="
			M381.7,380.9c10,3.3,18.6,9,25.5,16.7c3.3,3.8,6.3,8.1,8.7,12.6c2.3,4.5,4.3,9.3,5.7,14.1c2.8,9.5,3.7,19,3.6,26
			c0,3.5-0.2,6.4-0.4,8.4c-0.2,2-0.4,3.1-0.4,3.1s-1,0.5-2.9,1.3c-1.9,0.8-4.5,1.9-7.9,2.9c-6.7,2.1-15.9,4.2-25.9,4.4
			c-2.5,0-5,0-7.5-0.2c-2.6-0.2-5.1-0.6-7.6-1c-5-0.9-10-2.5-14.7-4.5c-4.6-2-9-4.8-13-8c-4-3.2-7.5-7-10.6-11.3"/>
	</g>
	<g>
		
			<path fill="none" stroke="#000000" stroke-width="2.8346" stroke-linecap="round" stroke-linejoin="round" stroke-miterlimit="10" d="
			M333.6,446.1c3,4.3,5.5,8.9,7.3,13.6c1.8,4.8,2.9,9.7,3.4,14.9c0.5,5.1,0.3,10.2-0.4,15.4c-0.7,5.1-2,10-3.6,14.8
			c-3.3,9.3-8.2,17.5-12.3,23.2c-2.1,2.8-3.9,5.1-5.2,6.6c-1.3,1.5-2.1,2.3-2.1,2.3s-1.1-0.2-3.1-0.7c-2-0.5-4.7-1.1-8.1-2.3
			c-3.3-1.2-7.2-2.5-11.2-4.5c-2-1-4.1-2-6.1-3.2c-2.1-1.2-4.1-2.5-6.2-4c-2-1.4-4-2.9-6-4.6c-1.9-1.7-3.8-3.4-5.6-5.3
			c-3.5-3.6-6.7-7.9-9.2-12.3c-2.6-4.4-4.5-9.2-5.8-14.1c-1.3-4.9-2-10.1-1.9-15.3"/>
	</g>
	<g>
		
			<path fill="none" stroke="#000000" stroke-width="2.8346" stroke-linecap="round" stroke-linejoin="round" stroke-miterlimit="10" d="
			M256.4,470.6c0,5.2-0.7,10.4-2.1,15.3c-1.3,4.9-3.4,9.6-5.9,14.1c-2.6,4.5-5.8,8.4-9.3,12.2c-3.6,3.7-7.5,6.9-11.7,9.8
			c-4.1,2.7-8.3,5.1-12.4,7c-4,1.8-7.9,3.3-11.2,4.4c-6.6,2-11.2,2.9-11.2,2.9s-3.2-3.4-7.3-9c-2-2.9-4.3-6.4-6.4-10.2
			c-2.1-4-4.1-8.4-5.8-13c-1.6-4.8-2.9-9.7-3.6-14.8c-0.6-5.2-0.8-10.2-0.3-15.4c0.6-5.1,1.7-10.1,3.6-14.8
			c1.8-4.7,4.4-9.3,7.4-13.6"/>
	</g>
	<g>
		
			<path fill="none" stroke="#000000" stroke-width="2.8346" stroke-linecap="round" stroke-linejoin="round" stroke-miterlimit="10" d="
			M179.5,444.9c-3.1,4.2-6.7,8-10.7,11.2c-4,3.2-8.4,5.9-13.1,7.9c-4.7,2-9.7,3.6-14.7,4.4c-2.5,0.4-5.1,0.7-7.6,0.9
			c-2.6,0.2-5,0.2-7.5,0.1c-2.5-0.1-5-0.2-7.3-0.5c-2.3-0.3-4.6-0.7-6.8-1.1c-4.5-0.8-8.3-2-11.7-3c-3.4-1-6-2.2-7.9-3
			c-1.9-0.8-2.9-1.3-2.9-1.3s-0.2-1.1-0.4-3.1c-0.1-2-0.3-4.9-0.3-8.4c0-7,1-16.5,3.8-26c1.5-4.8,3.4-9.5,5.8-14.1
			c2.5-4.6,5.3-8.8,8.8-12.6c3.5-3.8,7.3-7.2,11.6-9.9c4.3-2.8,9-5,14-6.6"/>
	</g>
	<g>
		
			<path fill="none" stroke="#000000" stroke-width="2.8346" stroke-linecap="round" stroke-linejoin="round" stroke-miterlimit="10" d="
			M132.4,379c-5,1.6-10.1,2.5-15.2,2.8c-5.1,0.3-10.3-0.2-15.2-1.3c-5-1.1-10-2.8-14.5-5.1c-2.3-1.1-4.6-2.4-6.8-3.7
			c-2.1-1.4-4.2-2.8-6.2-4.3c-8-6-14.1-13.2-18.3-18.9c-2.1-2.8-3.6-5.3-4.6-7c-1-1.7-1.6-2.8-1.6-2.8s0.5-1,1.5-2.7
			c1.1-1.7,2.7-4.2,4.7-7c4.1-5.7,10.5-12.8,18.4-18.8c4-3,8.4-5.7,13-7.9c4.7-2.2,9.6-3.9,14.5-5c10.1-2.1,20.4-1.6,30.4,1.7"/>
	</g>
	<g>
		
			<path fill="none" stroke="#000000" stroke-width="2.8346" stroke-linecap="round" stroke-linejoin="round" stroke-miterlimit="10" d="
			M133,298c-10-3.3-18.6-9-25.5-16.7c-3.3-3.8-6.3-8.1-8.7-12.6c-2.3-4.5-4.3-9.3-5.7-14.1c-2.8-9.5-3.7-19-3.6-26
			c0-3.5,0.2-6.4,0.4-8.4c0.2-2,0.4-3.1,0.4-3.1s1-0.5,2.9-1.3c1.9-0.8,4.5-1.9,7.9-2.9c6.7-2.1,15.9-4.2,25.9-4.4
			c2.5,0,5,0,7.5,0.2c2.6,0.2,5.1,0.6,7.6,1c5,0.9,10,2.5,14.7,4.5c4.6,2,9,4.8,13,8c4,3.2,7.5,7,10.6,11.3"/>
	</g>
	<g>
		
			<path fill="none" stroke="#000000" stroke-width="2.8346" stroke-linecap="round" stroke-linejoin="round" stroke-miterlimit="10" d="
			M181,232.8c-3-4.3-5.5-8.9-7.3-13.6c-1.8-4.8-2.9-9.7-3.4-14.9c-0.5-5.1-0.3-10.2,0.4-15.4c0.7-5.1,2-10,3.6-14.8
			c3.3-9.3,8.2-17.5,12.3-23.2c2.1-2.8,3.9-5.1,5.2-6.6c1.3-1.5,2.1-2.3,2.1-2.3s1.1,0.2,3.1,0.7c2,0.5,4.7,1.1,8.1,2.3
			c3.3,1.2,7.2,2.5,11.2,4.5c2,1,4.1,2,6.1,3.2c2.1,1.2,4.1,2.5,6.2,4c2,1.4,4,2.9,6,4.6c1.9,1.7,3.8,3.4,5.6,5.3
			c3.5,3.6,6.7,7.9,9.2,12.3c2.6,4.4,4.5,9.2,5.8,14.1c1.3,4.9,2,10.1,1.9,15.3"/>
	</g>
	<g>
		
			<path fill="none" stroke="#000000" stroke-width="2.8346" stroke-linecap="round" stroke-linejoin="round" stroke-miterlimit="10" d="
			M258.3,208.3c0-5.2,0.7-10.4,2.1-15.3c1.3-4.9,3.4-9.6,5.9-14.1c2.6-4.5,5.8-8.4,9.3-12.2c3.6-3.7,7.5-6.9,11.7-9.8
			c4.1-2.7,8.3-5.1,12.4-7c4-1.8,7.9-3.3,11.2-4.4c6.6-2,11.2-2.9,11.2-2.9s3.2,3.4,7.3,9c2,2.9,4.3,6.4,6.4,10.2
			c2.1,4,4.1,8.4,5.8,13c1.6,4.8,2.9,9.7,3.6,14.8c0.6,5.2,0.8,10.2,0.3,15.4c-0.6,5.1-1.7,10.1-3.6,14.8c-1.8,4.7-4.4,9.3-7.4,13.6
			"/>
	</g>
	<g>
		
			<path fill="none" stroke="#000000" stroke-width="2.8346" stroke-linecap="round" stroke-linejoin="round" stroke-miterlimit="10" d="
			M335.2,233.9c3.1-4.2,6.7-8,10.7-11.2c4-3.2,8.4-5.9,13.1-7.9c4.7-2,9.7-3.6,14.7-4.4c2.5-0.4,5.1-0.7,7.6-0.9
			c2.6-0.2,5-0.2,7.5-0.1c2.5,0.1,5,0.2,7.3,0.5c2.3,0.3,4.6,0.7,6.8,1.1c4.5,0.8,8.3,2,11.7,3c3.4,1,6,2.2,7.9,3
			c1.9,0.8,2.9,1.3,2.9,1.3s0.2,1.1,0.4,3.1c0.1,2,0.3,4.9,0.3,8.4c0,7-1,16.5-3.8,26c-1.5,4.8-3.4,9.5-5.8,14.1
			c-2.5,4.6-5.3,8.8-8.8,12.6c-3.5,3.8-7.3,7.2-11.6,9.9c-4.3,2.8-9,5-14,6.6"/>
	</g>
	<g>
		
			<path fill="none" stroke="#000000" stroke-width="2.8346" stroke-linecap="round" stroke-linejoin="round" stroke-miterlimit="10" d="
			M382.3,299.9c5-1.6,10.1-2.5,15.2-2.8c5.1-0.3,10.3,0.2,15.2,1.3c5,1.1,10,2.8,14.5,5.1c2.3,1.1,4.6,2.4,6.8,3.7
			c2.1,1.4,4.2,2.8,6.2,4.3c8,6,14.1,13.2,18.3,18.9c2.1,2.8,3.6,5.3,4.6,7c1,1.7,1.6,2.8,1.6,2.8s-0.5,1-1.5,2.7
			c-1.1,1.7-2.7,4.2-4.7,7c-4.1,5.7-10.5,12.8-18.4,18.8c-4,3-8.4,5.7-13,7.9c-4.7,2.2-9.6,3.9-14.5,5c-10.1,2.1-20.4,1.6-30.4-1.7"
			/>
	</g>
</g>
<g>
	<g>
		
			<path fill="none" stroke="#000000" stroke-width="2.8346" stroke-linecap="round" stroke-linejoin="round" stroke-miterlimit="10" d="
			M371.7,377.5c9.2,3,17.1,8.3,23.4,15.4c3.1,3.5,5.8,7.4,8,11.6c2.1,4.1,4,8.6,5.3,12.9c2.6,8.7,3.4,17.5,3.3,23.9
			c0,3.2-0.2,5.9-0.3,7.8c-0.2,1.8-0.4,2.9-0.4,2.9s-1,0.5-2.7,1.2c-1.7,0.7-4.1,1.8-7.3,2.7c-6.2,2-14.6,3.9-23.8,4
			c-2.3,0-4.6,0-6.9-0.2c-2.4-0.2-4.7-0.5-7-0.9c-4.6-0.8-9.2-2.3-13.5-4.2c-4.3-1.9-8.3-4.4-12-7.4c-3.6-3-6.9-6.4-9.7-10.4"/>
	</g>
	<g>
		
			<path fill="none" stroke="#000000" stroke-width="2.8346" stroke-linecap="round" stroke-linejoin="round" stroke-miterlimit="10" d="
			M327.5,437.5c2.8,3.9,5.1,8.1,6.7,12.5c1.6,4.4,2.7,9,3.2,13.7c0.5,4.7,0.3,9.4-0.3,14.1c-0.7,4.7-1.9,9.2-3.4,13.6
			c-3.1,8.6-7.5,16.1-11.3,21.3c-1.9,2.6-3.6,4.7-4.8,6.1c-1.2,1.4-2,2.1-2,2.1s-1-0.2-2.8-0.6c-1.8-0.4-4.4-1-7.4-2.1
			c-3.1-1.1-6.6-2.3-10.3-4.1c-1.9-0.9-3.8-1.9-5.6-2.9c-1.9-1.1-3.8-2.3-5.7-3.6c-1.9-1.3-3.7-2.7-5.5-4.2
			c-1.8-1.5-3.5-3.2-5.1-4.9c-3.3-3.3-6.1-7.3-8.5-11.3c-2.4-4-4.2-8.4-5.4-13c-1.2-4.5-1.8-9.3-1.8-14.1"/>
	</g>
	<g>
		
			<path fill="none" stroke="#000000" stroke-width="2.8346" stroke-linecap="round" stroke-linejoin="round" stroke-miterlimit="10" d="
			M256.4,460c0,4.8-0.7,9.6-1.9,14.1c-1.2,4.5-3.1,8.8-5.5,12.9c-2.4,4.1-5.3,7.8-8.6,11.2c-3.3,3.4-6.9,6.3-10.7,9
			c-3.8,2.5-7.7,4.7-11.4,6.5c-3.7,1.7-7.3,3.1-10.3,4.1c-6.1,1.9-10.3,2.6-10.3,2.6s-2.9-3.1-6.7-8.2c-1.9-2.6-3.9-5.9-5.9-9.4
			c-1.9-3.6-3.8-7.7-5.3-12c-1.5-4.4-2.7-8.9-3.3-13.6c-0.6-4.7-0.8-9.4-0.2-14.1c0.5-4.7,1.6-9.3,3.3-13.6c1.7-4.4,4-8.6,6.8-12.5"
			/>
	</g>
	<g>
		
			<path fill="none" stroke="#000000" stroke-width="2.8346" stroke-linecap="round" stroke-linejoin="round" stroke-miterlimit="10" d="
			M185.8,436.4c-2.9,3.9-6.1,7.3-9.8,10.3c-3.7,2.9-7.7,5.4-12,7.3c-4.3,1.9-8.9,3.3-13.5,4c-2.3,0.4-4.7,0.7-7,0.9
			c-2.3,0.2-4.6,0.2-6.9,0.1c-2.3-0.1-4.6-0.2-6.7-0.5c-2.2-0.3-4.3-0.6-6.3-1c-4.1-0.7-7.6-1.8-10.8-2.8c-3.1-1-5.5-2-7.2-2.7
			c-1.7-0.7-2.6-1.2-2.6-1.2s-0.2-1-0.3-2.9c-0.1-1.9-0.3-4.5-0.3-7.7c0-6.4,0.9-15.1,3.5-23.9c1.4-4.4,3.1-8.8,5.4-12.9
			c2.3-4.2,4.9-8.1,8.1-11.6c3.2-3.5,6.7-6.6,10.7-9.1c3.9-2.5,8.3-4.6,12.9-6.1"/>
	</g>
	<g>
		
			<path fill="none" stroke="#000000" stroke-width="2.8346" stroke-linecap="round" stroke-linejoin="round" stroke-miterlimit="10" d="
			M142.4,375.8c-4.6,1.5-9.3,2.3-14,2.6c-4.7,0.2-9.4-0.2-14-1.2c-4.6-1-9.2-2.6-13.3-4.7c-2.1-1-4.2-2.2-6.2-3.4
			c-2-1.2-3.8-2.6-5.7-4c-7.3-5.5-13-12.1-16.8-17.4c-2-2.6-3.3-4.9-4.2-6.5c-0.9-1.6-1.4-2.5-1.4-2.5s0.5-0.9,1.4-2.5
			c1-1.6,2.5-3.8,4.3-6.4c3.8-5.2,9.6-11.8,16.9-17.3c3.7-2.8,7.7-5.2,11.9-7.3c4.3-2,8.8-3.6,13.4-4.6c9.3-1.9,18.8-1.5,28,1.5"/>
	</g>
	<g>
		
			<path fill="none" stroke="#000000" stroke-width="2.8346" stroke-linecap="round" stroke-linejoin="round" stroke-miterlimit="10" d="
			M143,301.3c-9.2-3-17.1-8.3-23.4-15.4c-3.1-3.5-5.8-7.4-8-11.6c-2.1-4.1-4-8.6-5.3-12.9c-2.6-8.7-3.4-17.5-3.3-23.9
			c0-3.2,0.2-5.9,0.3-7.8c0.2-1.8,0.4-2.9,0.4-2.9s1-0.5,2.7-1.2c1.7-0.7,4.1-1.8,7.3-2.7c6.2-2,14.6-3.9,23.8-4
			c2.3,0,4.6,0,6.9,0.2c2.4,0.2,4.7,0.5,7,0.9c4.6,0.8,9.2,2.3,13.5,4.2c4.3,1.9,8.3,4.4,12,7.4c3.6,3,6.9,6.4,9.7,10.4"/>
	</g>
	<g>
		
			<path fill="none" stroke="#000000" stroke-width="2.8346" stroke-linecap="round" stroke-linejoin="round" stroke-miterlimit="10" d="
			M187.2,241.4c-2.8-3.9-5.1-8.1-6.7-12.5c-1.6-4.4-2.7-9-3.2-13.7c-0.5-4.7-0.3-9.4,0.3-14.1c0.7-4.7,1.9-9.2,3.4-13.6
			c3.1-8.6,7.5-16.1,11.3-21.3c1.9-2.6,3.6-4.7,4.8-6.1c1.2-1.4,2-2.1,2-2.1s1,0.2,2.8,0.6c1.8,0.4,4.4,1,7.4,2.1
			c3.1,1.1,6.6,2.3,10.3,4.1c1.9,0.9,3.8,1.9,5.6,2.9c1.9,1.1,3.8,2.3,5.7,3.6c1.9,1.3,3.7,2.7,5.5,4.2c1.8,1.5,3.5,3.2,5.1,4.9
			c3.3,3.3,6.1,7.3,8.5,11.3c2.4,4,4.2,8.4,5.4,13c1.2,4.5,1.8,9.3,1.8,14.1"/>
	</g>
	<g>
		
			<path fill="none" stroke="#000000" stroke-width="2.8346" stroke-linecap="round" stroke-linejoin="round" stroke-miterlimit="10" d="
			M258.2,218.9c0-4.8,0.7-9.6,1.9-14.1c1.2-4.5,3.1-8.8,5.5-12.9c2.4-4.1,5.3-7.8,8.6-11.2c3.3-3.4,6.9-6.3,10.7-9
			c3.8-2.5,7.7-4.7,11.4-6.5c3.7-1.7,7.3-3.1,10.3-4.1c6.1-1.9,10.3-2.6,10.3-2.6s2.9,3.1,6.7,8.2c1.9,2.6,3.9,5.9,5.9,9.4
			c1.9,3.6,3.8,7.7,5.3,12c1.5,4.4,2.7,8.9,3.3,13.6c0.6,4.7,0.8,9.4,0.2,14.1c-0.5,4.7-1.6,9.3-3.3,13.6c-1.7,4.4-4,8.6-6.8,12.5"
			/>
	</g>
	<g>
		
			<path fill="none" stroke="#000000" stroke-width="2.8346" stroke-linecap="round" stroke-linejoin="round" stroke-miterlimit="10" d="
			M328.9,242.5c2.9-3.9,6.1-7.3,9.8-10.3c3.7-2.9,7.7-5.4,12-7.3c4.3-1.9,8.9-3.3,13.5-4c2.3-0.4,4.7-0.7,7-0.9
			c2.3-0.2,4.6-0.2,6.9-0.1c2.3,0.1,4.6,0.2,6.7,0.5c2.2,0.3,4.3,0.6,6.3,1c4.1,0.7,7.6,1.8,10.8,2.8c3.1,1,5.5,2,7.2,2.7
			c1.7,0.7,2.6,1.2,2.6,1.2s0.2,1,0.3,2.9c0.1,1.9,0.3,4.5,0.3,7.7c0,6.4-0.9,15.1-3.5,23.9c-1.4,4.4-3.1,8.8-5.4,12.9
			c-2.3,4.2-4.9,8.1-8.1,11.6c-3.2,3.5-6.7,6.6-10.7,9.1c-3.9,2.5-8.3,4.6-12.9,6.1"/>
	</g>
	<g>
		
			<path fill="none" stroke="#000000" stroke-width="2.8346" stroke-linecap="round" stroke-linejoin="round" stroke-miterlimit="10" d="
			M372.2,303.1c4.6-1.5,9.3-2.3,14-2.6c4.7-0.2,9.4,0.2,14,1.2c4.6,1,9.2,2.6,13.3,4.7c2.1,1,4.2,2.2,6.2,3.4c2,1.2,3.8,2.6,5.7,4
			c7.3,5.5,13,12.1,16.8,17.4c2,2.6,3.3,4.9,4.2,6.5c0.9,1.6,1.4,2.5,1.4,2.5s-0.5,0.9-1.4,2.5c-1,1.6-2.5,3.8-4.3,6.4
			c-3.8,5.2-9.6,11.8-16.9,17.3c-3.7,2.8-7.7,5.2-11.9,7.3c-4.3,2-8.8,3.6-13.4,4.6c-9.3,1.9-18.8,1.5-28-1.5"/>
	</g>
</g>
<g>
	<g>
		
			<path fill="#FFFFFF" stroke="#000000" stroke-width="2.8346" stroke-linecap="round" stroke-linejoin="round" stroke-miterlimit="10" d="
			M348,340.4c7.3,0,14.2,1.9,20.4,5.5c3,1.8,5.9,4,8.5,6.4c2.5,2.5,4.9,5.2,6.8,8c3.9,5.7,6.6,11.7,8,16.4c0.7,2.3,1.3,4.3,1.6,5.6
			c0.3,1.4,0.4,2.1,0.4,2.1s-0.6,0.6-1.6,1.5c-1.1,0.9-2.5,2.2-4.6,3.6c-4,2.9-9.6,6.3-16.1,8.5c-1.6,0.6-3.3,1.1-5,1.5
			c-1.7,0.4-3.5,0.7-5.3,1c-3.5,0.5-7.1,0.6-10.7,0.2c-3.5-0.3-7-1.2-10.3-2.5c-3.3-1.3-6.5-3-9.4-5.1"/>
	</g>
	<g>
		
			<path fill="#FFFFFF" stroke="#000000" stroke-width="2.8346" stroke-linecap="round" stroke-linejoin="round" stroke-miterlimit="10" d="
			M330.4,393.8c2.9,2.2,5.6,4.6,7.8,7.4c2.2,2.7,4,5.8,5.5,9.1c1.5,3.3,2.4,6.7,3.1,10.2c0.6,3.5,0.8,7,0.8,10.5
			c-0.2,6.9-1.6,13.3-3.1,17.9c-0.8,2.3-1.5,4.2-2,5.5c-0.6,1.3-0.9,2-0.9,2s-0.8,0.1-2.2,0.2c-1.4,0.1-3.4,0.3-5.8,0.3
			c-2.5,0-5.3-0.1-8.4-0.5c-1.5-0.2-3.1-0.5-4.7-0.8c-1.6-0.3-3.3-0.8-4.9-1.3c-1.7-0.5-3.3-1-4.9-1.7c-1.6-0.7-3.3-1.4-4.8-2.3
			c-3.1-1.6-6.1-3.8-8.8-6.1c-2.6-2.3-5-5.1-6.9-8c-1.9-3-3.5-6.2-4.6-9.7"/>
	</g>
	<g>
		
			<path fill="#FFFFFF" stroke="#000000" stroke-width="2.8346" stroke-linecap="round" stroke-linejoin="round" stroke-miterlimit="10" d="
			M284.8,426.7c1.1,3.5,1.8,7,2,10.6c0.2,3.5-0.1,7.1-0.9,10.6c-0.7,3.5-2,6.8-3.5,10.1c-1.5,3.2-3.5,6.2-5.6,9
			c-2.1,2.7-4.4,5.2-6.6,7.3c-2.3,2.1-4.5,3.9-6.4,5.4c-3.9,2.8-6.8,4.3-6.8,4.3s-2.8-1.5-6.8-4.3c-2-1.4-4.2-3.3-6.4-5.4
			c-2.3-2.1-4.5-4.6-6.6-7.3c-2.1-2.8-4-5.7-5.6-9c-1.5-3.3-2.8-6.6-3.5-10.1c-0.7-3.5-1-7-0.9-10.6c0.2-3.5,0.9-7.1,2-10.6"/>
	</g>
	<g>
		
			<path fill="#FFFFFF" stroke="#000000" stroke-width="2.8346" stroke-linecap="round" stroke-linejoin="round" stroke-miterlimit="10" d="
			M228.5,426.5c-1.1,3.5-2.7,6.7-4.6,9.7c-1.9,3-4.3,5.7-6.9,8c-2.6,2.3-5.6,4.5-8.8,6.1c-1.6,0.8-3.2,1.6-4.8,2.3
			c-1.6,0.7-3.3,1.2-4.9,1.7c-1.6,0.5-3.3,0.9-4.9,1.3c-1.6,0.3-3.2,0.6-4.7,0.8c-3.1,0.5-5.9,0.5-8.4,0.5c-2.5,0-4.4-0.1-5.8-0.3
			c-1.4-0.1-2.2-0.2-2.2-0.2s-0.4-0.7-0.9-2c-0.5-1.3-1.3-3.2-2-5.5c-1.5-4.6-2.9-11.1-3.1-17.9c0-3.5,0.2-7,0.8-10.5
			c0.7-3.5,1.6-6.9,3.1-10.2c1.5-3.3,3.3-6.3,5.5-9.1c2.2-2.8,4.9-5.2,7.8-7.4"/>
	</g>
	<g>
		
			<path fill="#FFFFFF" stroke="#000000" stroke-width="2.8346" stroke-linecap="round" stroke-linejoin="round" stroke-miterlimit="10" d="
			M183.1,393.2c-3,2.1-6.1,3.9-9.4,5.1c-3.3,1.3-6.8,2.1-10.3,2.5c-3.5,0.4-7.2,0.3-10.7-0.2c-1.8-0.2-3.5-0.6-5.3-1
			c-1.7-0.4-3.4-0.9-5-1.5c-6.6-2.2-12.2-5.6-16.1-8.5c-2-1.4-3.5-2.7-4.6-3.6c-1.1-0.9-1.6-1.5-1.6-1.5s0.1-0.8,0.4-2.1
			c0.3-1.4,0.9-3.3,1.6-5.6c1.5-4.6,4.1-10.7,8-16.4c2-2.8,4.3-5.6,6.8-8c2.6-2.5,5.5-4.7,8.5-6.4c6.2-3.6,13.1-5.5,20.4-5.5"/>
	</g>
	<g>
		
			<path fill="#FFFFFF" stroke="#000000" stroke-width="2.8346" stroke-linecap="round" stroke-linejoin="round" stroke-miterlimit="10" d="
			M166,339.7c-7.3,0-14.2-1.9-20.4-5.5c-3-1.8-5.9-4-8.5-6.4c-2.5-2.5-4.9-5.2-6.8-8c-3.9-5.7-6.6-11.7-8-16.4
			c-0.7-2.3-1.3-4.3-1.6-5.6c-0.3-1.4-0.4-2.1-0.4-2.1s0.6-0.6,1.6-1.5c1.1-0.9,2.5-2.2,4.6-3.6c4-2.9,9.6-6.3,16.1-8.5
			c1.6-0.6,3.3-1.1,5-1.5c1.7-0.4,3.5-0.7,5.3-1c3.5-0.5,7.1-0.6,10.7-0.2c3.5,0.3,7,1.2,10.3,2.5c3.3,1.3,6.5,3,9.4,5.1"/>
	</g>
	<g>
		
			<path fill="#FFFFFF" stroke="#000000" stroke-width="2.8346" stroke-linecap="round" stroke-linejoin="round" stroke-miterlimit="10" d="
			M183.5,286.3c-2.9-2.2-5.6-4.6-7.8-7.4c-2.2-2.7-4-5.8-5.5-9.1c-1.5-3.3-2.4-6.7-3.1-10.2c-0.6-3.5-0.8-7-0.8-10.5
			c0.2-6.9,1.6-13.3,3.1-17.9c0.8-2.3,1.5-4.2,2-5.5c0.6-1.3,0.9-2,0.9-2s0.8-0.1,2.2-0.2c1.4-0.1,3.4-0.3,5.8-0.3
			c2.5,0,5.3,0.1,8.4,0.5c1.5,0.2,3.1,0.5,4.7,0.8c1.6,0.3,3.3,0.8,4.9,1.3c1.7,0.5,3.3,1,4.9,1.7c1.6,0.7,3.3,1.4,4.8,2.3
			c3.1,1.6,6.1,3.8,8.8,6.1c2.6,2.3,5,5.1,6.9,8c1.9,3,3.5,6.2,4.6,9.7"/>
	</g>
	<g>
		
			<path fill="#FFFFFF" stroke="#000000" stroke-width="2.8346" stroke-linecap="round" stroke-linejoin="round" stroke-miterlimit="10" d="
			M229.1,253.4c-1.1-3.5-1.8-7-2-10.6c-0.2-3.5,0.1-7.1,0.9-10.6c0.7-3.5,2-6.8,3.5-10.1c1.5-3.2,3.5-6.2,5.6-9
			c2.1-2.7,4.4-5.2,6.6-7.3c2.3-2.1,4.5-3.9,6.4-5.4c3.9-2.8,6.8-4.3,6.8-4.3s2.8,1.5,6.8,4.3c2,1.4,4.2,3.3,6.4,5.4
			c2.3,2.1,4.5,4.6,6.6,7.3c2.1,2.8,4,5.7,5.6,9c1.5,3.3,2.8,6.6,3.5,10.1c0.7,3.5,1,7,0.9,10.6c-0.2,3.5-0.9,7.1-2,10.6"/>
	</g>
	<g>
		
			<path fill="#FFFFFF" stroke="#000000" stroke-width="2.8346" stroke-linecap="round" stroke-linejoin="round" stroke-miterlimit="10" d="
			M285.4,253.6c1.1-3.5,2.7-6.7,4.6-9.7c1.9-3,4.3-5.7,6.9-8c2.6-2.3,5.6-4.5,8.8-6.1c1.6-0.8,3.2-1.6,4.8-2.3
			c1.6-0.7,3.3-1.2,4.9-1.7c1.6-0.5,3.3-0.9,4.9-1.3c1.6-0.3,3.2-0.6,4.7-0.8c3.1-0.5,5.9-0.5,8.4-0.5c2.5,0,4.4,0.1,5.8,0.3
			c1.4,0.1,2.2,0.2,2.2,0.2s0.4,0.7,0.9,2c0.5,1.3,1.3,3.2,2,5.5c1.5,4.6,2.9,11.1,3.1,17.9c0,3.5-0.2,7-0.8,10.5
			c-0.7,3.5-1.6,6.9-3.1,10.2c-1.5,3.3-3.3,6.3-5.5,9.1c-2.2,2.8-4.9,5.2-7.8,7.4"/>
	</g>
	<g>
		
			<path fill="#FFFFFF" stroke="#000000" stroke-width="2.8346" stroke-linecap="round" stroke-linejoin="round" stroke-miterlimit="10" d="
			M330.8,286.8c3-2.1,6.1-3.9,9.4-5.1c3.3-1.3,6.8-2.1,10.3-2.5c3.5-0.4,7.2-0.3,10.7,0.2c1.8,0.2,3.5,0.6,5.3,1
			c1.7,0.4,3.4,0.9,5,1.5c6.6,2.2,12.2,5.6,16.1,8.5c2,1.4,3.5,2.7,4.6,3.6c1.1,0.9,1.6,1.5,1.6,1.5s-0.1,0.8-0.4,2.1
			c-0.3,1.4-0.9,3.3-1.6,5.6c-1.5,4.6-4.1,10.7-8,16.4c-2,2.8-4.3,5.6-6.8,8c-2.6,2.5-5.5,4.7-8.5,6.4c-6.2,3.6-13.1,5.5-20.4,5.5"
			/>
	</g>
</g>
<g>
	<g>
		<g>
			<path fill="#FFFFFF" d="M345.1,340.4c7.1,0,13.8,1.8,19.8,5.3c2.9,1.7,5.7,3.8,8.2,6.2c2.4,2.4,4.7,5,6.6,7.8
				c3.8,5.5,6.4,11.4,7.8,15.8c0.7,2.2,1.2,4.1,1.5,5.5c0.3,1.3,0.4,2.1,0.4,2.1s-0.6,0.5-1.6,1.4c-1,0.9-2.5,2.2-4.4,3.5
				c-3.8,2.8-9.3,6.1-15.6,8.2c-1.6,0.5-3.2,1-4.8,1.5c-1.7,0.4-3.4,0.7-5.1,1c-3.4,0.5-6.9,0.5-10.3,0.2c-3.4-0.3-6.8-1.1-10-2.4
				c-3.2-1.2-6.3-2.9-9.1-5"/>
			<g>
				<path fill="none" stroke="#000000" stroke-width="2.8346" stroke-linecap="round" stroke-linejoin="round" d="M345.1,340.4
					c0.5,0,0.9,0,1.4,0"/>
				
					<path fill="none" stroke="#000000" stroke-width="2.8346" stroke-linecap="round" stroke-linejoin="round" stroke-dasharray="2.7808,5.5616" d="
					M352.1,341c4.5,0.8,8.8,2.4,12.8,4.7c2.9,1.7,5.7,3.8,8.2,6.2c2.4,2.4,4.7,5,6.6,7.8c3.8,5.5,6.4,11.4,7.8,15.8
					c0.4,1.3,0.7,2.4,1,3.5"/>
				<path fill="none" stroke="#000000" stroke-width="2.8346" stroke-linecap="round" stroke-linejoin="round" d="M389.2,381.7
					c0.2,0.9,0.3,1.4,0.3,1.4s-0.4,0.3-1,1"/>
				
					<path fill="none" stroke="#000000" stroke-width="2.8346" stroke-linecap="round" stroke-linejoin="round" stroke-dasharray="2.7817,5.5634" d="
					M384.2,387.6c-0.2,0.2-0.4,0.3-0.7,0.5c-3.8,2.8-9.3,6.1-15.6,8.2c-1.6,0.5-3.2,1-4.8,1.5c-1.7,0.4-3.4,0.7-5.1,1
					c-3.4,0.5-6.9,0.5-10.3,0.2c-3.4-0.3-6.8-1.1-10-2.4c-1.9-0.7-3.8-1.6-5.6-2.7"/>
				<path fill="none" stroke="#000000" stroke-width="2.8346" stroke-linecap="round" stroke-linejoin="round" d="M329.7,392.3
					c-0.4-0.3-0.8-0.5-1.2-0.8"/>
			</g>
		</g>
	</g>
	<g>
		<g>
			<path fill="#FFFFFF" d="M328.1,392.1c2.8,2.1,5.4,4.5,7.5,7.2c2.1,2.7,3.9,5.6,5.3,8.8c1.4,3.2,2.3,6.5,3,9.9
				c0.6,3.4,0.8,6.8,0.8,10.2c-0.2,6.6-1.5,12.9-3,17.4c-0.7,2.2-1.4,4.1-2,5.3c-0.5,1.2-0.9,1.9-0.9,1.9s-0.8,0.1-2.1,0.2
				c-1.4,0.1-3.3,0.3-5.6,0.2c-2.4,0-5.1-0.1-8.1-0.5c-1.5-0.2-3-0.4-4.6-0.8c-1.6-0.3-3.2-0.8-4.8-1.2c-1.6-0.5-3.2-1-4.8-1.7
				c-1.6-0.7-3.2-1.4-4.7-2.2c-3-1.6-5.9-3.6-8.5-5.9c-2.6-2.3-4.8-4.9-6.7-7.8c-1.9-2.9-3.4-6-4.5-9.4"/>
			<g>
				<path fill="none" stroke="#000000" stroke-width="2.8346" stroke-linecap="round" stroke-linejoin="round" d="M328.1,392.1
					c0.4,0.3,0.8,0.6,1.1,0.9"/>
				
					<path fill="none" stroke="#000000" stroke-width="2.8346" stroke-linecap="round" stroke-linejoin="round" stroke-dasharray="2.78,5.5601" d="
					M333.4,396.6c0.8,0.8,1.6,1.7,2.3,2.6c2.1,2.7,3.9,5.6,5.3,8.8c1.4,3.2,2.3,6.5,3,9.9c0.6,3.4,0.8,6.8,0.8,10.2
					c-0.2,6.6-1.5,12.9-3,17.4c-0.4,1.3-0.8,2.4-1.2,3.4"/>
				<path fill="none" stroke="#000000" stroke-width="2.8346" stroke-linecap="round" stroke-linejoin="round" d="M339.5,451.4
					c-0.4,0.8-0.6,1.3-0.6,1.3s-0.5,0.1-1.4,0.2"/>
				
					<path fill="none" stroke="#000000" stroke-width="2.8346" stroke-linecap="round" stroke-linejoin="round" stroke-dasharray="2.7809,5.5618" d="
					M332,453.2c-0.3,0-0.5,0-0.8,0c-2.4,0-5.1-0.1-8.1-0.5c-1.5-0.2-3-0.4-4.6-0.8c-1.6-0.3-3.2-0.8-4.8-1.2c-1.6-0.5-3.2-1-4.8-1.7
					c-1.6-0.7-3.2-1.4-4.7-2.2c-3-1.6-5.9-3.6-8.5-5.9c-2.6-2.3-4.8-4.9-6.7-7.8c-1.1-1.7-2.1-3.5-3-5.5"/>
				<path fill="none" stroke="#000000" stroke-width="2.8346" stroke-linecap="round" stroke-linejoin="round" d="M285,425.1
					c-0.2-0.4-0.3-0.9-0.5-1.3"/>
			</g>
		</g>
	</g>
	<g>
		<g>
			<path fill="#FFFFFF" d="M283.9,424c1.1,3.4,1.7,6.8,1.9,10.2c0.2,3.4-0.1,6.8-0.8,10.2c-0.7,3.4-1.9,6.6-3.4,9.8
				c-1.5,3.1-3.4,6-5.4,8.7c-2,2.6-4.2,5-6.4,7.1c-2.2,2-4.3,3.8-6.2,5.2c-3.8,2.7-6.5,4.2-6.5,4.2s-2.7-1.5-6.5-4.2
				c-1.9-1.4-4.1-3.2-6.2-5.2c-2.2-2.1-4.4-4.5-6.4-7.1c-2-2.7-3.9-5.6-5.4-8.7c-1.5-3.2-2.7-6.3-3.4-9.8c-0.7-3.4-1-6.8-0.8-10.2
				c0.2-3.4,0.8-6.9,1.9-10.2"/>
			<g>
				<path fill="none" stroke="#000000" stroke-width="2.8346" stroke-linecap="round" stroke-linejoin="round" d="M283.9,424
					c0.1,0.5,0.3,0.9,0.4,1.4"/>
				
					<path fill="none" stroke="#000000" stroke-width="2.8346" stroke-linecap="round" stroke-linejoin="round" stroke-dasharray="2.7801,5.5601" d="
					M285.5,430.7c0.2,1.1,0.3,2.3,0.3,3.4c0.2,3.4-0.1,6.8-0.8,10.2c-0.7,3.4-1.9,6.6-3.4,9.8c-1.5,3.1-3.4,6-5.4,8.7
					c-2,2.6-4.2,5-6.4,7.1c-2.2,2-4.3,3.8-6.2,5.2c-1.1,0.8-2.1,1.4-3,2"/>
				<path fill="none" stroke="#000000" stroke-width="2.8346" stroke-linecap="round" stroke-linejoin="round" d="M258.2,478.6
					c-0.8,0.5-1.2,0.7-1.2,0.7s-0.4-0.2-1.2-0.7"/>
				
					<path fill="none" stroke="#000000" stroke-width="2.8346" stroke-linecap="round" stroke-linejoin="round" stroke-dasharray="2.7801,5.5601" d="
					M251.1,475.6c-0.2-0.1-0.4-0.3-0.7-0.5c-1.9-1.4-4.1-3.2-6.2-5.2c-2.2-2.1-4.4-4.5-6.4-7.1c-2-2.7-3.9-5.6-5.4-8.7
					c-1.5-3.2-2.7-6.3-3.4-9.8c-0.7-3.4-1-6.8-0.8-10.2c0.1-2,0.4-4.1,0.8-6.2"/>
				<path fill="none" stroke="#000000" stroke-width="2.8346" stroke-linecap="round" stroke-linejoin="round" d="M229.7,425.3
					c0.1-0.5,0.3-0.9,0.4-1.4"/>
			</g>
		</g>
	</g>
	<g>
		<g>
			<path fill="#FFFFFF" d="M229.5,423.7c-1.1,3.4-2.6,6.5-4.5,9.4c-1.9,2.9-4.1,5.5-6.7,7.8c-2.6,2.3-5.5,4.3-8.5,5.9
				c-1.5,0.8-3.1,1.5-4.7,2.2c-1.6,0.7-3.2,1.2-4.8,1.7c-1.6,0.5-3.2,0.9-4.8,1.2c-1.6,0.3-3.1,0.6-4.6,0.8c-3,0.4-5.7,0.5-8.1,0.5
				c-2.4,0-4.3-0.1-5.6-0.2c-1.4-0.1-2.1-0.2-2.1-0.2s-0.3-0.7-0.9-1.9c-0.5-1.3-1.2-3.1-2-5.3c-1.5-4.5-2.8-10.7-3-17.4
				c0-3.4,0.2-6.8,0.8-10.2c0.7-3.4,1.6-6.7,3-9.9c1.4-3.2,3.2-6.1,5.3-8.8c2.1-2.7,4.7-5.1,7.5-7.2"/>
			<g>
				<path fill="none" stroke="#000000" stroke-width="2.8346" stroke-linecap="round" stroke-linejoin="round" d="M229.5,423.7
					c-0.1,0.5-0.3,0.9-0.5,1.3"/>
				
					<path fill="none" stroke="#000000" stroke-width="2.8346" stroke-linecap="round" stroke-linejoin="round" stroke-dasharray="2.7809,5.5618" d="
					M226.7,430.2c-0.5,1-1.1,2-1.7,3c-1.9,2.9-4.1,5.5-6.7,7.8c-2.6,2.3-5.5,4.3-8.5,5.9c-1.5,0.8-3.1,1.5-4.7,2.2
					c-1.6,0.7-3.2,1.2-4.8,1.7c-1.6,0.5-3.2,0.9-4.8,1.2c-1.6,0.3-3.1,0.6-4.6,0.8c-3,0.4-5.7,0.5-8.1,0.5c-1.4,0-2.6,0-3.6-0.1"/>
				<path fill="none" stroke="#000000" stroke-width="2.8346" stroke-linecap="round" stroke-linejoin="round" d="M176.5,452.9
					c-0.9-0.1-1.4-0.2-1.4-0.2s-0.2-0.4-0.6-1.3"/>
				
					<path fill="none" stroke="#000000" stroke-width="2.8346" stroke-linecap="round" stroke-linejoin="round" stroke-dasharray="2.78,5.5601" d="
					M172.6,446.2c-0.1-0.3-0.2-0.5-0.3-0.8c-1.5-4.5-2.8-10.7-3-17.4c0-3.4,0.2-6.8,0.8-10.2c0.7-3.4,1.6-6.7,3-9.9
					c1.4-3.2,3.2-6.1,5.3-8.8c1.3-1.6,2.7-3.1,4.3-4.5"/>
				<path fill="none" stroke="#000000" stroke-width="2.8346" stroke-linecap="round" stroke-linejoin="round" d="M184.8,392.9
					c0.4-0.3,0.7-0.6,1.1-0.9"/>
			</g>
		</g>
	</g>
	<g>
		<g>
			<path fill="#FFFFFF" d="M185.5,391.5c-2.9,2.1-5.9,3.7-9.1,5c-3.2,1.2-6.6,2-10,2.4c-3.4,0.3-7,0.3-10.3-0.2
				c-1.7-0.2-3.4-0.6-5.1-1c-1.7-0.4-3.3-0.9-4.8-1.5c-6.4-2.2-11.8-5.5-15.6-8.2c-2-1.4-3.4-2.6-4.4-3.5c-1-0.9-1.6-1.4-1.6-1.4
				s0.1-0.8,0.4-2.1c0.3-1.3,0.8-3.2,1.5-5.5c1.4-4.5,4-10.4,7.8-15.8c1.9-2.7,4.2-5.4,6.6-7.8c2.5-2.4,5.3-4.5,8.2-6.2
				c6-3.5,12.7-5.3,19.8-5.3"/>
			<g>
				<path fill="none" stroke="#000000" stroke-width="2.8346" stroke-linecap="round" stroke-linejoin="round" d="M185.5,391.5
					c-0.4,0.3-0.8,0.5-1.2,0.8"/>
				
					<path fill="none" stroke="#000000" stroke-width="2.8346" stroke-linecap="round" stroke-linejoin="round" stroke-dasharray="2.7817,5.5634" d="
					M179.6,395.1c-1,0.5-2.1,1-3.1,1.4c-3.2,1.2-6.6,2-10,2.4c-3.4,0.3-7,0.3-10.3-0.2c-1.7-0.2-3.4-0.6-5.1-1
					c-1.7-0.4-3.3-0.9-4.8-1.5c-6.4-2.2-11.8-5.5-15.6-8.2c-1.1-0.8-2.1-1.5-2.9-2.2"/>
				<path fill="none" stroke="#000000" stroke-width="2.8346" stroke-linecap="round" stroke-linejoin="round" d="M125.6,384
					c-0.7-0.6-1-1-1-1s0.1-0.5,0.3-1.4"/>
				
					<path fill="none" stroke="#000000" stroke-width="2.8346" stroke-linecap="round" stroke-linejoin="round" stroke-dasharray="2.7808,5.5616" d="
					M126.2,376.3c0.1-0.3,0.2-0.5,0.2-0.8c1.4-4.5,4-10.4,7.8-15.8c1.9-2.7,4.2-5.4,6.6-7.8c2.5-2.4,5.3-4.5,8.2-6.2
					c4.8-2.8,10.1-4.5,15.6-5.1"/>
				<path fill="none" stroke="#000000" stroke-width="2.8346" stroke-linecap="round" stroke-linejoin="round" d="M167.5,340.4
					c0.5,0,0.9,0,1.4,0"/>
			</g>
		</g>
	</g>
	<g>
		<g>
			<path fill="#FFFFFF" d="M168.9,339.7c-7.1,0-13.8-1.8-19.8-5.3c-2.9-1.7-5.7-3.8-8.2-6.2c-2.4-2.4-4.7-5-6.6-7.8
				c-3.8-5.5-6.4-11.4-7.8-15.8c-0.7-2.2-1.2-4.1-1.5-5.5c-0.3-1.3-0.4-2.1-0.4-2.1s0.6-0.5,1.6-1.4c1-0.9,2.5-2.2,4.4-3.5
				c3.8-2.8,9.3-6.1,15.6-8.2c1.6-0.5,3.2-1,4.8-1.5c1.7-0.4,3.4-0.7,5.1-1c3.4-0.5,6.9-0.5,10.3-0.2c3.4,0.3,6.8,1.1,10,2.4
				c3.2,1.2,6.3,2.9,9.1,5"/>
			<g>
				<path fill="none" stroke="#000000" stroke-width="2.8346" stroke-linecap="round" stroke-linejoin="round" d="M168.9,339.7
					c-0.5,0-0.9,0-1.4,0"/>
				
					<path fill="none" stroke="#000000" stroke-width="2.8346" stroke-linecap="round" stroke-linejoin="round" stroke-dasharray="2.7808,5.5616" d="
					M162,339.1c-4.5-0.8-8.8-2.4-12.8-4.7c-2.9-1.7-5.7-3.8-8.2-6.2c-2.4-2.4-4.7-5-6.6-7.8c-3.8-5.5-6.4-11.4-7.8-15.8
					c-0.4-1.3-0.7-2.4-1-3.5"/>
				<path fill="none" stroke="#000000" stroke-width="2.8346" stroke-linecap="round" stroke-linejoin="round" d="M124.8,298.4
					c-0.2-0.9-0.3-1.4-0.3-1.4s0.4-0.3,1-1"/>
				
					<path fill="none" stroke="#000000" stroke-width="2.8346" stroke-linecap="round" stroke-linejoin="round" stroke-dasharray="2.7817,5.5634" d="
					M129.9,292.5c0.2-0.2,0.4-0.3,0.7-0.5c3.8-2.8,9.3-6.1,15.6-8.2c1.6-0.5,3.2-1,4.8-1.5c1.7-0.4,3.4-0.7,5.1-1
					c3.4-0.5,6.9-0.5,10.3-0.2c3.4,0.3,6.8,1.1,10,2.4c1.9,0.7,3.8,1.6,5.6,2.7"/>
				<path fill="none" stroke="#000000" stroke-width="2.8346" stroke-linecap="round" stroke-linejoin="round" d="M184.4,287.7
					c0.4,0.3,0.8,0.5,1.2,0.8"/>
			</g>
		</g>
	</g>
	<g>
		<g>
			<path fill="#FFFFFF" d="M185.9,288c-2.8-2.1-5.4-4.5-7.5-7.2c-2.1-2.7-3.9-5.6-5.3-8.8c-1.4-3.2-2.3-6.5-3-9.9
				c-0.6-3.4-0.8-6.8-0.8-10.2c0.2-6.6,1.5-12.9,3-17.4c0.7-2.2,1.4-4.1,2-5.3c0.5-1.2,0.9-1.9,0.9-1.9s0.8-0.1,2.1-0.2
				c1.4-0.1,3.3-0.3,5.6-0.2c2.4,0,5.1,0.1,8.1,0.5c1.5,0.2,3,0.4,4.6,0.8c1.6,0.3,3.2,0.8,4.8,1.2c1.6,0.5,3.2,1,4.8,1.7
				c1.6,0.7,3.2,1.4,4.7,2.2c3,1.6,5.9,3.6,8.5,5.9c2.6,2.3,4.8,4.9,6.7,7.8c1.9,2.9,3.4,6,4.5,9.4"/>
			<g>
				<path fill="none" stroke="#000000" stroke-width="2.8346" stroke-linecap="round" stroke-linejoin="round" d="M185.9,288
					c-0.4-0.3-0.8-0.6-1.1-0.9"/>
				
					<path fill="none" stroke="#000000" stroke-width="2.8346" stroke-linecap="round" stroke-linejoin="round" stroke-dasharray="2.78,5.5601" d="
					M180.7,283.4c-0.8-0.8-1.6-1.7-2.3-2.6c-2.1-2.7-3.9-5.6-5.3-8.8c-1.4-3.2-2.3-6.5-3-9.9c-0.6-3.4-0.8-6.8-0.8-10.2
					c0.2-6.6,1.5-12.9,3-17.4c0.4-1.3,0.8-2.4,1.2-3.4"/>
				<path fill="none" stroke="#000000" stroke-width="2.8346" stroke-linecap="round" stroke-linejoin="round" d="M174.5,228.6
					c0.4-0.8,0.6-1.3,0.6-1.3s0.5-0.1,1.4-0.2"/>
				
					<path fill="none" stroke="#000000" stroke-width="2.8346" stroke-linecap="round" stroke-linejoin="round" stroke-dasharray="2.7809,5.5618" d="
					M182.1,226.9c0.3,0,0.5,0,0.8,0c2.4,0,5.1,0.1,8.1,0.5c1.5,0.2,3,0.4,4.6,0.8c1.6,0.3,3.2,0.8,4.8,1.2c1.6,0.5,3.2,1,4.8,1.7
					c1.6,0.7,3.2,1.4,4.7,2.2c3,1.6,5.9,3.6,8.5,5.9c2.6,2.3,4.8,4.9,6.7,7.8c1.1,1.7,2.1,3.5,3,5.5"/>
				<path fill="none" stroke="#000000" stroke-width="2.8346" stroke-linecap="round" stroke-linejoin="round" d="M229,255
					c0.2,0.4,0.3,0.9,0.5,1.3"/>
			</g>
		</g>
	</g>
	<g>
		<g>
			<path fill="#FFFFFF" d="M230.1,256.1c-1.1-3.4-1.7-6.8-1.9-10.2c-0.2-3.4,0.1-6.8,0.8-10.2c0.7-3.4,1.9-6.6,3.4-9.8
				c1.5-3.1,3.4-6,5.4-8.7c2-2.6,4.2-5,6.4-7.1c2.2-2,4.3-3.8,6.2-5.2c3.8-2.7,6.5-4.2,6.5-4.2s2.7,1.5,6.5,4.2
				c1.9,1.4,4.1,3.2,6.2,5.2c2.2,2.1,4.4,4.5,6.4,7.1c2,2.7,3.9,5.6,5.4,8.7c1.5,3.2,2.7,6.3,3.4,9.8c0.7,3.4,1,6.8,0.8,10.2
				c-0.2,3.4-0.8,6.9-1.9,10.2"/>
			<g>
				<path fill="none" stroke="#000000" stroke-width="2.8346" stroke-linecap="round" stroke-linejoin="round" d="M230.1,256.1
					c-0.1-0.5-0.3-0.9-0.4-1.4"/>
				
					<path fill="none" stroke="#000000" stroke-width="2.8346" stroke-linecap="round" stroke-linejoin="round" stroke-dasharray="2.7801,5.5601" d="
					M228.5,249.3c-0.2-1.1-0.3-2.3-0.3-3.4c-0.2-3.4,0.1-6.8,0.8-10.2c0.7-3.4,1.9-6.6,3.4-9.8c1.5-3.1,3.4-6,5.4-8.7
					c2-2.6,4.2-5,6.4-7.1c2.2-2,4.3-3.8,6.2-5.2c1.1-0.8,2.1-1.4,3-2"/>
				<path fill="none" stroke="#000000" stroke-width="2.8346" stroke-linecap="round" stroke-linejoin="round" d="M255.8,201.4
					c0.8-0.5,1.2-0.7,1.2-0.7s0.4,0.2,1.2,0.7"/>
				
					<path fill="none" stroke="#000000" stroke-width="2.8346" stroke-linecap="round" stroke-linejoin="round" stroke-dasharray="2.7801,5.5601" d="
					M262.9,204.5c0.2,0.1,0.4,0.3,0.7,0.5c1.9,1.4,4.1,3.2,6.2,5.2c2.2,2.1,4.4,4.5,6.4,7.1c2,2.7,3.9,5.6,5.4,8.7
					c1.5,3.2,2.7,6.3,3.4,9.8c0.7,3.4,1,6.8,0.8,10.2c-0.1,2-0.4,4.1-0.8,6.2"/>
				<path fill="none" stroke="#000000" stroke-width="2.8346" stroke-linecap="round" stroke-linejoin="round" d="M284.4,254.8
					c-0.1,0.5-0.3,0.9-0.4,1.4"/>
			</g>
		</g>
	</g>
	<g>
		<g>
			<path fill="#FFFFFF" d="M284.6,256.3c1.1-3.4,2.6-6.5,4.5-9.4c1.9-2.9,4.1-5.5,6.7-7.8c2.6-2.3,5.5-4.3,8.5-5.9
				c1.5-0.8,3.1-1.5,4.7-2.2c1.6-0.7,3.2-1.2,4.8-1.7c1.6-0.5,3.2-0.9,4.8-1.2c1.6-0.3,3.1-0.6,4.6-0.8c3-0.4,5.7-0.5,8.1-0.5
				c2.4,0,4.3,0.1,5.6,0.2c1.4,0.1,2.1,0.2,2.1,0.2s0.3,0.7,0.9,1.9c0.5,1.3,1.2,3.1,2,5.3c1.5,4.5,2.8,10.7,3,17.4
				c0,3.4-0.2,6.8-0.8,10.2c-0.7,3.4-1.6,6.7-3,9.9c-1.4,3.2-3.2,6.1-5.3,8.8c-2.1,2.7-4.7,5.1-7.5,7.2"/>
			<g>
				<path fill="none" stroke="#000000" stroke-width="2.8346" stroke-linecap="round" stroke-linejoin="round" d="M284.6,256.3
					c0.1-0.5,0.3-0.9,0.5-1.3"/>
				
					<path fill="none" stroke="#000000" stroke-width="2.8346" stroke-linecap="round" stroke-linejoin="round" stroke-dasharray="2.7809,5.5618" d="
					M287.3,249.9c0.5-1,1.1-2,1.7-3c1.9-2.9,4.1-5.5,6.7-7.8c2.6-2.3,5.5-4.3,8.5-5.9c1.5-0.8,3.1-1.5,4.7-2.2
					c1.6-0.7,3.2-1.2,4.8-1.7c1.6-0.5,3.2-0.9,4.8-1.2c1.6-0.3,3.1-0.6,4.6-0.8c3-0.4,5.7-0.5,8.1-0.5c1.4,0,2.6,0,3.6,0.1"/>
				<path fill="none" stroke="#000000" stroke-width="2.8346" stroke-linecap="round" stroke-linejoin="round" d="M337.5,227.2
					c0.9,0.1,1.4,0.2,1.4,0.2s0.2,0.4,0.6,1.3"/>
				
					<path fill="none" stroke="#000000" stroke-width="2.8346" stroke-linecap="round" stroke-linejoin="round" stroke-dasharray="2.78,5.5601" d="
					M341.5,233.8c0.1,0.3,0.2,0.5,0.3,0.8c1.5,4.5,2.8,10.7,3,17.4c0,3.4-0.2,6.8-0.8,10.2c-0.7,3.4-1.6,6.7-3,9.9
					c-1.4,3.2-3.2,6.1-5.3,8.8c-1.3,1.6-2.7,3.1-4.3,4.5"/>
				<path fill="none" stroke="#000000" stroke-width="2.8346" stroke-linecap="round" stroke-linejoin="round" d="M329.3,287.1
					c-0.4,0.3-0.7,0.6-1.1,0.9"/>
			</g>
		</g>
	</g>
	<g>
		<g>
			<path fill="#FFFFFF" d="M328.5,288.5c2.9-2.1,5.9-3.7,9.1-5c3.2-1.2,6.6-2,10-2.4c3.4-0.3,7-0.3,10.3,0.2c1.7,0.2,3.4,0.6,5.1,1
				c1.7,0.4,3.3,0.9,4.8,1.5c6.4,2.2,11.8,5.5,15.6,8.2c2,1.4,3.4,2.6,4.4,3.5c1,0.9,1.6,1.4,1.6,1.4s-0.1,0.8-0.4,2.1
				c-0.3,1.3-0.8,3.2-1.5,5.5c-1.4,4.5-4,10.4-7.8,15.8c-1.9,2.7-4.2,5.4-6.6,7.8c-2.5,2.4-5.3,4.5-8.2,6.2
				c-6,3.5-12.7,5.3-19.8,5.3"/>
			<g>
				<path fill="none" stroke="#000000" stroke-width="2.8346" stroke-linecap="round" stroke-linejoin="round" d="M328.5,288.5
					c0.4-0.3,0.8-0.5,1.2-0.8"/>
				
					<path fill="none" stroke="#000000" stroke-width="2.8346" stroke-linecap="round" stroke-linejoin="round" stroke-dasharray="2.7817,5.5634" d="
					M334.5,284.9c1-0.5,2.1-1,3.1-1.4c3.2-1.2,6.6-2,10-2.4c3.4-0.3,7-0.3,10.3,0.2c1.7,0.2,3.4,0.6,5.1,1c1.7,0.4,3.3,0.9,4.8,1.5
					c6.4,2.2,11.8,5.5,15.6,8.2c1.1,0.8,2.1,1.5,2.9,2.2"/>
				<path fill="none" stroke="#000000" stroke-width="2.8346" stroke-linecap="round" stroke-linejoin="round" d="M388.5,296
					c0.7,0.6,1,1,1,1s-0.1,0.5-0.3,1.4"/>
				
					<path fill="none" stroke="#000000" stroke-width="2.8346" stroke-linecap="round" stroke-linejoin="round" stroke-dasharray="2.7808,5.5616" d="
					M387.8,303.7c-0.1,0.3-0.2,0.5-0.2,0.8c-1.4,4.5-4,10.4-7.8,15.8c-1.9,2.7-4.2,5.4-6.6,7.8c-2.5,2.4-5.3,4.5-8.2,6.2
					c-4.8,2.8-10.1,4.5-15.6,5.1"/>
				<path fill="none" stroke="#000000" stroke-width="2.8346" stroke-linecap="round" stroke-linejoin="round" d="M346.6,339.7
					c-0.5,0-0.9,0-1.4,0"/>
			</g>
		</g>
	</g>
</g>
<g>
	<g>
		<g>
			<path fill="#FFFFFF" d="M341.8,340.3c6.8,0,13.2,1.8,19,5.1c2.8,1.7,5.5,3.7,7.9,6c2.3,2.3,4.5,4.8,6.4,7.5
				c3.7,5.3,6.1,10.9,7.5,15.2c0.7,2.2,1.2,4,1.5,5.3c0.3,1.3,0.4,2,0.4,2s-0.5,0.5-1.5,1.4c-1,0.9-2.4,2.1-4.3,3.4
				c-3.7,2.7-8.9,5.8-15,7.9c-1.5,0.5-3.1,1-4.7,1.4c-1.6,0.4-3.3,0.7-4.9,0.9c-3.2,0.5-6.7,0.5-9.9,0.2c-3.3-0.3-6.5-1.1-9.6-2.3
				c-3.1-1.2-6-2.8-8.8-4.8"/>
			<g>
				<path fill="none" stroke="#000000" stroke-width="2.8346" stroke-linecap="round" stroke-linejoin="round" d="M341.8,340.3
					c0.5,0,0.9,0,1.4,0"/>
				
					<path fill="none" stroke="#000000" stroke-width="2.8346" stroke-linecap="round" stroke-linejoin="round" stroke-dasharray="2.6712,5.3424" d="
					M348.5,340.9c4.3,0.8,8.5,2.3,12.3,4.5c2.8,1.7,5.5,3.7,7.9,6c2.3,2.3,4.5,4.8,6.4,7.5c3.7,5.3,6.1,10.9,7.5,15.2
					c0.4,1.2,0.7,2.3,1,3.3"/>
				<path fill="none" stroke="#000000" stroke-width="2.8346" stroke-linecap="round" stroke-linejoin="round" d="M384.2,380.1
					c0.2,0.9,0.3,1.4,0.3,1.4s-0.4,0.3-1,1"/>
				
					<path fill="none" stroke="#000000" stroke-width="2.8346" stroke-linecap="round" stroke-linejoin="round" stroke-dasharray="2.6721,5.3441" d="
					M379.3,385.8c-0.2,0.1-0.4,0.3-0.6,0.4c-3.7,2.7-8.9,5.8-15,7.9c-1.5,0.5-3.1,1-4.7,1.4c-1.6,0.4-3.3,0.7-4.9,0.9
					c-3.2,0.5-6.7,0.5-9.9,0.2c-3.3-0.3-6.5-1.1-9.6-2.3c-1.8-0.7-3.6-1.6-5.3-2.6"/>
				<path fill="none" stroke="#000000" stroke-width="2.8346" stroke-linecap="round" stroke-linejoin="round" d="M327,390.4
					c-0.4-0.3-0.8-0.5-1.2-0.8"/>
			</g>
		</g>
	</g>
	<g>
		<g>
			<path fill="#FFFFFF" d="M325.4,390.1c2.7,2,5.2,4.3,7.3,6.9c2.1,2.6,3.8,5.4,5.1,8.4c1.4,3.1,2.3,6.2,2.9,9.5
				c0.6,3.3,0.8,6.6,0.7,9.8c-0.2,6.4-1.5,12.4-2.9,16.7c-0.7,2.1-1.4,3.9-1.9,5.1c-0.5,1.2-0.9,1.8-0.9,1.8s-0.7,0.1-2,0.2
				c-1.3,0.1-3.1,0.3-5.4,0.2c-2.3,0-4.9-0.1-7.8-0.5c-1.4-0.2-2.9-0.4-4.4-0.7c-1.5-0.3-3.1-0.7-4.6-1.2c-1.5-0.5-3.1-1-4.6-1.6
				c-1.5-0.6-3-1.3-4.5-2.1c-2.9-1.5-5.7-3.5-8.2-5.7c-2.5-2.2-4.6-4.7-6.4-7.5c-1.8-2.8-3.2-5.8-4.3-9"/>
			<g>
				<path fill="none" stroke="#000000" stroke-width="2.8346" stroke-linecap="round" stroke-linejoin="round" d="M325.4,390.1
					c0.4,0.3,0.8,0.6,1.1,0.9"/>
				
					<path fill="none" stroke="#000000" stroke-width="2.8346" stroke-linecap="round" stroke-linejoin="round" stroke-dasharray="2.6704,5.3408" d="
					M330.5,394.5c0.8,0.8,1.5,1.6,2.2,2.5c2.1,2.6,3.8,5.4,5.1,8.4c1.4,3.1,2.3,6.2,2.9,9.5c0.6,3.3,0.8,6.6,0.7,9.8
					c-0.2,6.4-1.5,12.4-2.9,16.7c-0.4,1.2-0.8,2.3-1.1,3.2"/>
				<path fill="none" stroke="#000000" stroke-width="2.8346" stroke-linecap="round" stroke-linejoin="round" d="M336.4,447.2
					c-0.4,0.8-0.6,1.3-0.6,1.3s-0.5,0.1-1.4,0.2"/>
				
					<path fill="none" stroke="#000000" stroke-width="2.8346" stroke-linecap="round" stroke-linejoin="round" stroke-dasharray="2.6713,5.3426" d="
					M329.1,448.9c-0.2,0-0.5,0-0.7,0c-2.3,0-4.9-0.1-7.8-0.5c-1.4-0.2-2.9-0.4-4.4-0.7c-1.5-0.3-3.1-0.7-4.6-1.2
					c-1.5-0.5-3.1-1-4.6-1.6c-1.5-0.6-3-1.3-4.5-2.1c-2.9-1.5-5.7-3.5-8.2-5.7c-2.5-2.2-4.6-4.7-6.4-7.5c-1.1-1.6-2-3.4-2.8-5.2"/>
				<path fill="none" stroke="#000000" stroke-width="2.8346" stroke-linecap="round" stroke-linejoin="round" d="M284,421.9
					c-0.2-0.4-0.3-0.9-0.5-1.3"/>
			</g>
		</g>
	</g>
	<g>
		<g>
			<path fill="#FFFFFF" d="M282.9,420.8c1,3.2,1.7,6.6,1.8,9.8c0.2,3.3-0.1,6.6-0.8,9.8c-0.7,3.3-1.8,6.3-3.3,9.4
				c-1.4,3-3.2,5.8-5.2,8.4c-2,2.5-4.1,4.8-6.2,6.8c-2.1,1.9-4.2,3.6-6,5c-3.7,2.6-6.3,4-6.3,4s-2.6-1.4-6.3-4c-1.8-1.3-3.9-3.1-6-5
				c-2.1-2-4.2-4.3-6.2-6.8c-1.9-2.6-3.7-5.4-5.2-8.4c-1.4-3-2.6-6.1-3.3-9.4c-0.7-3.3-1-6.6-0.8-9.8c0.2-3.3,0.8-6.6,1.8-9.8"/>
			<g>
				<path fill="none" stroke="#000000" stroke-width="2.8346" stroke-linecap="round" stroke-linejoin="round" d="M282.9,420.8
					c0.1,0.5,0.3,0.9,0.4,1.4"/>
				
					<path fill="none" stroke="#000000" stroke-width="2.8346" stroke-linecap="round" stroke-linejoin="round" stroke-dasharray="2.6705,5.341" d="
					M284.5,427.4c0.2,1.1,0.3,2.2,0.3,3.3c0.2,3.3-0.1,6.6-0.8,9.8c-0.7,3.3-1.8,6.3-3.3,9.4c-1.4,3-3.2,5.8-5.2,8.4
					c-2,2.5-4.1,4.8-6.2,6.8c-2.1,1.9-4.2,3.6-6,5c-1,0.7-2,1.4-2.8,1.9"/>
				<path fill="none" stroke="#000000" stroke-width="2.8346" stroke-linecap="round" stroke-linejoin="round" d="M258.2,473.4
					c-0.8,0.5-1.2,0.7-1.2,0.7s-0.4-0.2-1.2-0.7"/>
				
					<path fill="none" stroke="#000000" stroke-width="2.8346" stroke-linecap="round" stroke-linejoin="round" stroke-dasharray="2.6705,5.341" d="
					M251.3,470.5c-0.2-0.1-0.4-0.3-0.6-0.4c-1.8-1.3-3.9-3.1-6-5c-2.1-2-4.2-4.3-6.2-6.8c-1.9-2.6-3.7-5.4-5.2-8.4
					c-1.4-3-2.6-6.1-3.3-9.4c-0.7-3.3-1-6.6-0.8-9.8c0.1-2,0.4-3.9,0.8-5.9"/>
				<path fill="none" stroke="#000000" stroke-width="2.8346" stroke-linecap="round" stroke-linejoin="round" d="M230.7,422.1
					c0.1-0.5,0.3-0.9,0.4-1.4"/>
			</g>
		</g>
	</g>
	<g>
		<g>
			<path fill="#FFFFFF" d="M230.5,420.6c-1.1,3.2-2.5,6.2-4.3,9c-1.8,2.8-4,5.3-6.4,7.5c-2.5,2.2-5.3,4.2-8.2,5.7
				c-1.5,0.8-3,1.5-4.5,2.1c-1.5,0.6-3.1,1.1-4.6,1.6c-1.5,0.5-3.1,0.9-4.6,1.2c-1.5,0.3-3,0.5-4.4,0.7c-2.9,0.4-5.5,0.5-7.8,0.5
				c-2.3,0-4.1-0.1-5.4-0.2c-1.3-0.1-2-0.2-2-0.2s-0.3-0.7-0.9-1.8c-0.5-1.2-1.2-3-1.9-5.1c-1.4-4.3-2.7-10.3-2.9-16.7
				c0-3.3,0.2-6.5,0.7-9.8c0.6-3.3,1.5-6.5,2.9-9.5c1.4-3,3.1-5.9,5.1-8.4c2.1-2.6,4.5-4.9,7.3-6.9"/>
			<g>
				<path fill="none" stroke="#000000" stroke-width="2.8346" stroke-linecap="round" stroke-linejoin="round" d="M230.5,420.6
					c-0.1,0.5-0.3,0.9-0.5,1.3"/>
				
					<path fill="none" stroke="#000000" stroke-width="2.8346" stroke-linecap="round" stroke-linejoin="round" stroke-dasharray="2.6713,5.3426" d="
					M227.9,426.8c-0.5,1-1.1,1.9-1.7,2.8c-1.8,2.8-4,5.3-6.4,7.5c-2.5,2.2-5.3,4.2-8.2,5.7c-1.5,0.8-3,1.5-4.5,2.1
					c-1.5,0.6-3.1,1.1-4.6,1.6c-1.5,0.5-3.1,0.9-4.6,1.2c-1.5,0.3-3,0.5-4.4,0.7c-2.9,0.4-5.5,0.5-7.8,0.5c-1.3,0-2.4,0-3.4-0.1"/>
				<path fill="none" stroke="#000000" stroke-width="2.8346" stroke-linecap="round" stroke-linejoin="round" d="M179.6,448.6
					c-0.9-0.1-1.4-0.2-1.4-0.2s-0.2-0.5-0.6-1.3"/>
				
					<path fill="none" stroke="#000000" stroke-width="2.8346" stroke-linecap="round" stroke-linejoin="round" stroke-dasharray="2.6704,5.3408" d="
					M175.7,442.2c-0.1-0.2-0.2-0.5-0.2-0.7c-1.4-4.3-2.7-10.3-2.9-16.7c0-3.3,0.2-6.5,0.7-9.8c0.6-3.3,1.5-6.5,2.9-9.5
					c1.4-3,3.1-5.9,5.1-8.4c1.2-1.5,2.6-3,4.1-4.3"/>
				<path fill="none" stroke="#000000" stroke-width="2.8346" stroke-linecap="round" stroke-linejoin="round" d="M187.5,391
					c0.4-0.3,0.7-0.6,1.1-0.9"/>
			</g>
		</g>
	</g>
	<g>
		<g>
			<path fill="#FFFFFF" d="M188.2,389.6c-2.8,2-5.7,3.6-8.8,4.8c-3.1,1.2-6.3,2-9.6,2.3c-3.3,0.3-6.7,0.3-9.9-0.2
				c-1.6-0.2-3.3-0.5-4.9-0.9c-1.6-0.4-3.1-0.9-4.7-1.4c-6.1-2.1-11.4-5.3-15-7.9c-1.9-1.3-3.3-2.5-4.3-3.4c-1-0.9-1.5-1.4-1.5-1.4
				s0.1-0.7,0.4-2c0.3-1.3,0.8-3.1,1.5-5.3c1.4-4.3,3.8-10,7.5-15.2c1.8-2.6,4-5.2,6.4-7.5c2.5-2.3,5.1-4.3,7.9-6
				c5.8-3.3,12.2-5.1,19-5.1"/>
			<g>
				<path fill="none" stroke="#000000" stroke-width="2.8346" stroke-linecap="round" stroke-linejoin="round" d="M188.2,389.6
					c-0.4,0.3-0.8,0.5-1.2,0.8"/>
				
					<path fill="none" stroke="#000000" stroke-width="2.8346" stroke-linecap="round" stroke-linejoin="round" stroke-dasharray="2.6721,5.3441" d="
					M182.4,393.1c-1,0.5-2,0.9-3,1.3c-3.1,1.2-6.3,2-9.6,2.3c-3.3,0.3-6.7,0.3-9.9-0.2c-1.6-0.2-3.3-0.5-4.9-0.9
					c-1.6-0.4-3.1-0.9-4.7-1.4c-6.1-2.1-11.4-5.3-15-7.9c-1.1-0.7-2-1.4-2.7-2.1"/>
				<path fill="none" stroke="#000000" stroke-width="2.8346" stroke-linecap="round" stroke-linejoin="round" d="M130.6,382.4
					c-0.7-0.6-1-1-1-1s0.1-0.5,0.3-1.4"/>
				
					<path fill="none" stroke="#000000" stroke-width="2.8346" stroke-linecap="round" stroke-linejoin="round" stroke-dasharray="2.6712,5.3424" d="
					M131.2,374.9c0.1-0.2,0.1-0.5,0.2-0.7c1.4-4.3,3.8-10,7.5-15.2c1.8-2.6,4-5.2,6.4-7.5c2.5-2.3,5.1-4.3,7.9-6
					c4.6-2.7,9.7-4.3,14.9-4.9"/>
				<path fill="none" stroke="#000000" stroke-width="2.8346" stroke-linecap="round" stroke-linejoin="round" d="M170.8,340.4
					c0.5,0,0.9,0,1.4,0"/>
			</g>
		</g>
	</g>
	<g>
		<g>
			<path fill="#FFFFFF" d="M172.2,339.7c-6.8,0-13.2-1.8-19-5.1c-2.8-1.7-5.5-3.7-7.9-6c-2.3-2.3-4.5-4.8-6.4-7.5
				c-3.7-5.3-6.1-10.9-7.5-15.2c-0.7-2.2-1.2-4-1.5-5.3c-0.3-1.3-0.4-2-0.4-2s0.5-0.5,1.5-1.4c1-0.9,2.4-2.1,4.3-3.4
				c3.7-2.7,8.9-5.8,15-7.9c1.5-0.5,3.1-1,4.7-1.4c1.6-0.4,3.3-0.7,4.9-0.9c3.2-0.5,6.7-0.5,9.9-0.2c3.3,0.3,6.5,1.1,9.6,2.3
				c3.1,1.2,6,2.8,8.8,4.8"/>
			<g>
				<path fill="none" stroke="#000000" stroke-width="2.8346" stroke-linecap="round" stroke-linejoin="round" d="M172.2,339.7
					c-0.5,0-0.9,0-1.4,0"/>
				
					<path fill="none" stroke="#000000" stroke-width="2.8346" stroke-linecap="round" stroke-linejoin="round" stroke-dasharray="2.6712,5.3424" d="
					M165.5,339.1c-4.3-0.8-8.5-2.3-12.3-4.5c-2.8-1.7-5.5-3.7-7.9-6c-2.3-2.3-4.5-4.8-6.4-7.5c-3.7-5.3-6.1-10.9-7.5-15.2
					c-0.4-1.2-0.7-2.3-1-3.3"/>
				<path fill="none" stroke="#000000" stroke-width="2.8346" stroke-linecap="round" stroke-linejoin="round" d="M129.8,300
					c-0.2-0.9-0.3-1.4-0.3-1.4s0.4-0.3,1-1"/>
				
					<path fill="none" stroke="#000000" stroke-width="2.8346" stroke-linecap="round" stroke-linejoin="round" stroke-dasharray="2.6721,5.3441" d="
					M134.7,294.3c0.2-0.1,0.4-0.3,0.6-0.4c3.7-2.7,8.9-5.8,15-7.9c1.5-0.5,3.1-1,4.7-1.4c1.6-0.4,3.3-0.7,4.9-0.9
					c3.2-0.5,6.7-0.5,9.9-0.2c3.3,0.3,6.5,1.1,9.6,2.3c1.8,0.7,3.6,1.6,5.3,2.6"/>
				<path fill="none" stroke="#000000" stroke-width="2.8346" stroke-linecap="round" stroke-linejoin="round" d="M187.1,289.7
					c0.4,0.3,0.8,0.5,1.2,0.8"/>
			</g>
		</g>
	</g>
	<g>
		<g>
			<path fill="#FFFFFF" d="M188.6,290c-2.7-2-5.2-4.3-7.3-6.9c-2.1-2.6-3.8-5.4-5.1-8.4c-1.4-3.1-2.3-6.2-2.9-9.5
				c-0.6-3.3-0.8-6.6-0.7-9.8c0.2-6.4,1.5-12.4,2.9-16.7c0.7-2.1,1.4-3.9,1.9-5.1c0.5-1.2,0.9-1.8,0.9-1.8s0.7-0.1,2-0.2
				c1.3-0.1,3.1-0.3,5.4-0.2c2.3,0,4.9,0.1,7.8,0.5c1.4,0.2,2.9,0.4,4.4,0.7c1.5,0.3,3.1,0.7,4.6,1.2c1.5,0.5,3.1,1,4.6,1.6
				c1.5,0.6,3,1.3,4.5,2.1c2.9,1.5,5.7,3.5,8.2,5.7c2.5,2.2,4.6,4.7,6.4,7.5c1.8,2.8,3.2,5.8,4.3,9"/>
			<g>
				<path fill="none" stroke="#000000" stroke-width="2.8346" stroke-linecap="round" stroke-linejoin="round" d="M188.6,290
					c-0.4-0.3-0.8-0.6-1.1-0.9"/>
				
					<path fill="none" stroke="#000000" stroke-width="2.8346" stroke-linecap="round" stroke-linejoin="round" stroke-dasharray="2.6704,5.3408" d="
					M183.5,285.5c-0.8-0.8-1.5-1.6-2.2-2.5c-2.1-2.6-3.8-5.4-5.1-8.4c-1.4-3.1-2.3-6.2-2.9-9.5c-0.6-3.3-0.8-6.6-0.7-9.8
					c0.2-6.4,1.5-12.4,2.9-16.7c0.4-1.2,0.8-2.3,1.1-3.2"/>
				<path fill="none" stroke="#000000" stroke-width="2.8346" stroke-linecap="round" stroke-linejoin="round" d="M177.6,232.9
					c0.4-0.8,0.6-1.3,0.6-1.3s0.5-0.1,1.4-0.2"/>
				
					<path fill="none" stroke="#000000" stroke-width="2.8346" stroke-linecap="round" stroke-linejoin="round" stroke-dasharray="2.6713,5.3426" d="
					M185,231.1c0.2,0,0.5,0,0.7,0c2.3,0,4.9,0.1,7.8,0.5c1.4,0.2,2.9,0.4,4.4,0.7c1.5,0.3,3.1,0.7,4.6,1.2c1.5,0.5,3.1,1,4.6,1.6
					c1.5,0.6,3,1.3,4.5,2.1c2.9,1.5,5.7,3.5,8.2,5.7c2.5,2.2,4.6,4.7,6.4,7.5c1.1,1.6,2,3.4,2.8,5.2"/>
				<path fill="none" stroke="#000000" stroke-width="2.8346" stroke-linecap="round" stroke-linejoin="round" d="M230,258.1
					c0.2,0.4,0.3,0.9,0.5,1.3"/>
			</g>
		</g>
	</g>
	<g>
		<g>
			<path fill="#FFFFFF" d="M231.1,259.3c-1-3.2-1.7-6.6-1.8-9.8c-0.2-3.3,0.1-6.6,0.8-9.8c0.7-3.3,1.8-6.3,3.3-9.4
				c1.4-3,3.2-5.8,5.2-8.4c2-2.5,4.1-4.8,6.2-6.8c2.1-1.9,4.2-3.6,6-5c3.7-2.6,6.3-4,6.3-4s2.6,1.4,6.3,4c1.8,1.3,3.9,3.1,6,5
				c2.1,2,4.2,4.3,6.2,6.8c1.9,2.6,3.7,5.4,5.2,8.4c1.4,3,2.6,6.1,3.3,9.4c0.7,3.3,1,6.6,0.8,9.8c-0.2,3.3-0.8,6.6-1.8,9.8"/>
			<g>
				<path fill="none" stroke="#000000" stroke-width="2.8346" stroke-linecap="round" stroke-linejoin="round" d="M231.1,259.3
					c-0.1-0.5-0.3-0.9-0.4-1.4"/>
				
					<path fill="none" stroke="#000000" stroke-width="2.8346" stroke-linecap="round" stroke-linejoin="round" stroke-dasharray="2.6705,5.341" d="
					M229.6,252.7c-0.2-1.1-0.3-2.2-0.3-3.3c-0.2-3.3,0.1-6.6,0.8-9.8c0.7-3.3,1.8-6.3,3.3-9.4c1.4-3,3.2-5.8,5.2-8.4
					c2-2.5,4.1-4.8,6.2-6.8c2.1-1.9,4.2-3.6,6-5c1-0.7,2-1.4,2.8-1.9"/>
				<path fill="none" stroke="#000000" stroke-width="2.8346" stroke-linecap="round" stroke-linejoin="round" d="M255.8,206.7
					c0.8-0.5,1.2-0.7,1.2-0.7s0.4,0.2,1.2,0.7"/>
				
					<path fill="none" stroke="#000000" stroke-width="2.8346" stroke-linecap="round" stroke-linejoin="round" stroke-dasharray="2.6705,5.341" d="
					M262.7,209.6c0.2,0.1,0.4,0.3,0.6,0.4c1.8,1.3,3.9,3.1,6,5c2.1,2,4.2,4.3,6.2,6.8c1.9,2.6,3.7,5.4,5.2,8.4
					c1.4,3,2.6,6.1,3.3,9.4c0.7,3.3,1,6.6,0.8,9.8c-0.1,2-0.4,3.9-0.8,5.9"/>
				<path fill="none" stroke="#000000" stroke-width="2.8346" stroke-linecap="round" stroke-linejoin="round" d="M283.3,257.9
					c-0.1,0.5-0.3,0.9-0.4,1.4"/>
			</g>
		</g>
	</g>
	<g>
		<g>
			<path fill="#FFFFFF" d="M283.5,259.5c1.1-3.2,2.5-6.2,4.3-9c1.8-2.8,4-5.3,6.4-7.5c2.5-2.2,5.3-4.2,8.2-5.7
				c1.5-0.8,3-1.5,4.5-2.1c1.5-0.6,3.1-1.1,4.6-1.6c1.5-0.5,3.1-0.9,4.6-1.2c1.5-0.3,3-0.5,4.4-0.7c2.9-0.4,5.5-0.5,7.8-0.5
				c2.3,0,4.1,0.1,5.4,0.2c1.3,0.1,2,0.2,2,0.2s0.3,0.7,0.9,1.8c0.5,1.2,1.2,3,1.9,5.1c1.4,4.3,2.7,10.3,2.9,16.7
				c0,3.3-0.2,6.5-0.7,9.8c-0.6,3.3-1.5,6.5-2.9,9.5c-1.4,3-3.1,5.9-5.1,8.4c-2.1,2.6-4.5,4.9-7.3,6.9"/>
			<g>
				<path fill="none" stroke="#000000" stroke-width="2.8346" stroke-linecap="round" stroke-linejoin="round" d="M283.5,259.5
					c0.1-0.5,0.3-0.9,0.5-1.3"/>
				
					<path fill="none" stroke="#000000" stroke-width="2.8346" stroke-linecap="round" stroke-linejoin="round" stroke-dasharray="2.6713,5.3426" d="
					M286.2,253.3c0.5-1,1.1-1.9,1.7-2.8c1.8-2.8,4-5.3,6.4-7.5c2.5-2.2,5.3-4.2,8.2-5.7c1.5-0.8,3-1.5,4.5-2.1
					c1.5-0.6,3.1-1.1,4.6-1.6c1.5-0.5,3.1-0.9,4.6-1.2c1.5-0.3,3-0.5,4.4-0.7c2.9-0.4,5.5-0.5,7.8-0.5c1.3,0,2.4,0,3.4,0.1"/>
				<path fill="none" stroke="#000000" stroke-width="2.8346" stroke-linecap="round" stroke-linejoin="round" d="M334.4,231.5
					c0.9,0.1,1.4,0.2,1.4,0.2s0.2,0.5,0.6,1.3"/>
				
					<path fill="none" stroke="#000000" stroke-width="2.8346" stroke-linecap="round" stroke-linejoin="round" stroke-dasharray="2.6704,5.3408" d="
					M338.3,237.9c0.1,0.2,0.2,0.5,0.2,0.7c1.4,4.3,2.7,10.3,2.9,16.7c0,3.3-0.2,6.5-0.7,9.8c-0.6,3.3-1.5,6.5-2.9,9.5
					c-1.4,3-3.1,5.9-5.1,8.4c-1.2,1.5-2.6,3-4.1,4.3"/>
				<path fill="none" stroke="#000000" stroke-width="2.8346" stroke-linecap="round" stroke-linejoin="round" d="M326.6,289.1
					c-0.4,0.3-0.7,0.6-1.1,0.9"/>
			</g>
		</g>
	</g>
	<g>
		<g>
			<path fill="#FFFFFF" d="M325.8,290.5c2.8-2,5.7-3.6,8.8-4.8c3.1-1.2,6.3-2,9.6-2.3c3.3-0.3,6.7-0.3,9.9,0.2
				c1.6,0.2,3.3,0.5,4.9,0.9c1.6,0.4,3.1,0.9,4.7,1.4c6.1,2.1,11.4,5.3,15,7.9c1.9,1.3,3.3,2.5,4.3,3.4c1,0.9,1.5,1.4,1.5,1.4
				s-0.1,0.7-0.4,2c-0.3,1.3-0.8,3.1-1.5,5.3c-1.4,4.3-3.8,10-7.5,15.2c-1.8,2.6-4,5.2-6.4,7.5c-2.5,2.3-5.1,4.3-7.9,6
				c-5.8,3.3-12.2,5.1-19,5.1"/>
			<g>
				<path fill="none" stroke="#000000" stroke-width="2.8346" stroke-linecap="round" stroke-linejoin="round" d="M325.8,290.5
					c0.4-0.3,0.8-0.5,1.2-0.8"/>
				
					<path fill="none" stroke="#000000" stroke-width="2.8346" stroke-linecap="round" stroke-linejoin="round" stroke-dasharray="2.6721,5.3441" d="
					M331.6,287c1-0.5,2-0.9,3-1.3c3.1-1.2,6.3-2,9.6-2.3c3.3-0.3,6.7-0.3,9.9,0.2c1.6,0.2,3.3,0.5,4.9,0.9c1.6,0.4,3.1,0.9,4.7,1.4
					c6.1,2.1,11.4,5.3,15,7.9c1.1,0.7,2,1.4,2.7,2.1"/>
				<path fill="none" stroke="#000000" stroke-width="2.8346" stroke-linecap="round" stroke-linejoin="round" d="M383.5,297.7
					c0.7,0.6,1,1,1,1s-0.1,0.5-0.3,1.4"/>
				
					<path fill="none" stroke="#000000" stroke-width="2.8346" stroke-linecap="round" stroke-linejoin="round" stroke-dasharray="2.6712,5.3424" d="
					M382.9,305.2c-0.1,0.2-0.1,0.5-0.2,0.7c-1.4,4.3-3.8,10-7.5,15.2c-1.8,2.6-4,5.2-6.4,7.5c-2.5,2.3-5.1,4.3-7.9,6
					c-4.6,2.7-9.7,4.3-14.9,4.9"/>
				<path fill="none" stroke="#000000" stroke-width="2.8346" stroke-linecap="round" stroke-linejoin="round" d="M343.2,339.7
					c-0.5,0-0.9,0-1.4,0"/>
			</g>
		</g>
	</g>
</g>
<g>
	<g>
		
			<path fill="#FFFFFF" stroke="#000000" stroke-width="2.8346" stroke-linecap="round" stroke-linejoin="round" stroke-miterlimit="10" d="
			M337.4,340.3c6.4,0,12.5,1.7,18,4.8c2.7,1.6,5.2,3.5,7.5,5.7c2.2,2.2,4.3,4.6,6,7.1c3.5,5,5.8,10.4,7.1,14.4c0.7,2,1.1,3.8,1.4,5
			c0.3,1.2,0.4,1.9,0.4,1.9s-0.5,0.5-1.4,1.3c-0.9,0.8-2.2,2-4,3.2c-3.5,2.5-8.5,5.5-14.3,7.5c-1.4,0.5-2.9,1-4.4,1.3
			c-1.5,0.4-3.1,0.7-4.6,0.9c-3.1,0.4-6.3,0.5-9.4,0.2c-3.1-0.3-6.2-1-9.1-2.2c-2.9-1.1-5.7-2.6-8.3-4.5"/>
	</g>
	<g>
		
			<path fill="#FFFFFF" stroke="#000000" stroke-width="2.8346" stroke-linecap="round" stroke-linejoin="round" stroke-miterlimit="10" d="
			M321.9,387.5c2.6,1.9,4.9,4.1,6.9,6.5c2,2.4,3.6,5.1,4.9,8c1.3,2.9,2.1,5.9,2.7,9c0.6,3.1,0.7,6.2,0.7,9.3
			c-0.2,6.1-1.4,11.8-2.7,15.8c-0.7,2-1.3,3.7-1.8,4.9c-0.5,1.1-0.8,1.7-0.8,1.7s-0.7,0.1-1.9,0.2c-1.2,0.1-3,0.3-5.2,0.2
			c-2.2,0-4.6-0.1-7.4-0.5c-1.4-0.2-2.8-0.4-4.2-0.7c-1.4-0.3-2.9-0.7-4.4-1.1c-1.5-0.4-2.9-0.9-4.4-1.5c-1.5-0.6-2.9-1.3-4.3-2
			c-2.8-1.4-5.4-3.3-7.7-5.4c-2.3-2.1-4.4-4.5-6.1-7.1c-1.7-2.6-3.1-5.5-4.1-8.6"/>
	</g>
	<g>
		
			<path fill="#FFFFFF" stroke="#000000" stroke-width="2.8346" stroke-linecap="round" stroke-linejoin="round" stroke-miterlimit="10" d="
			M281.6,416.5c1,3.1,1.6,6.2,1.7,9.3c0.2,3.1-0.1,6.2-0.8,9.3c-0.7,3.1-1.7,6-3.1,8.9c-1.4,2.9-3.1,5.4-4.9,7.9
			c-1.9,2.4-3.9,4.6-5.9,6.5c-2,1.8-4,3.5-5.7,4.7c-3.5,2.5-6,3.8-6,3.8s-2.5-1.4-6-3.8c-1.7-1.3-3.7-2.9-5.7-4.7
			c-2-1.9-4-4.1-5.9-6.5c-1.8-2.5-3.5-5.1-4.9-7.9c-1.4-2.9-2.4-5.8-3.1-8.9c-0.7-3.1-0.9-6.2-0.8-9.3c0.2-3.1,0.8-6.3,1.7-9.3"/>
	</g>
	<g>
		
			<path fill="#FFFFFF" stroke="#000000" stroke-width="2.8346" stroke-linecap="round" stroke-linejoin="round" stroke-miterlimit="10" d="
			M231.9,416.3c-1,3.1-2.4,5.9-4.1,8.6c-1.7,2.6-3.8,5-6.1,7.1c-2.3,2.1-5,3.9-7.7,5.4c-1.4,0.7-2.8,1.4-4.3,2
			c-1.5,0.6-2.9,1.1-4.4,1.5c-1.5,0.4-2.9,0.8-4.4,1.1c-1.4,0.3-2.8,0.5-4.2,0.7c-2.7,0.4-5.2,0.4-7.4,0.5c-2.2,0-3.9-0.1-5.2-0.2
			c-1.2-0.1-1.9-0.2-1.9-0.2s-0.3-0.6-0.8-1.7c-0.5-1.2-1.1-2.8-1.8-4.9c-1.3-4.1-2.6-9.8-2.7-15.8c0-3.1,0.1-6.2,0.7-9.3
			c0.6-3.1,1.4-6.1,2.7-9c1.3-2.9,2.9-5.6,4.9-8c2-2.4,4.3-4.6,6.9-6.5"/>
	</g>
	<g>
		
			<path fill="#FFFFFF" stroke="#000000" stroke-width="2.8346" stroke-linecap="round" stroke-linejoin="round" stroke-miterlimit="10" d="
			M191.8,387c-2.6,1.9-5.4,3.4-8.3,4.5c-2.9,1.1-6,1.9-9.1,2.2c-3.1,0.3-6.3,0.3-9.4-0.2c-1.6-0.2-3.1-0.5-4.6-0.9
			c-1.5-0.4-3-0.8-4.4-1.3c-5.8-2-10.8-5-14.3-7.5c-1.8-1.2-3.1-2.4-4-3.2c-0.9-0.8-1.4-1.3-1.4-1.3s0.1-0.7,0.4-1.9
			c0.3-1.2,0.8-2.9,1.4-5c1.3-4.1,3.6-9.4,7.1-14.4c1.7-2.5,3.8-4.9,6-7.1c2.3-2.2,4.8-4.1,7.5-5.7c5.5-3.2,11.6-4.8,18-4.8"/>
	</g>
	<g>
		
			<path fill="#FFFFFF" stroke="#000000" stroke-width="2.8346" stroke-linecap="round" stroke-linejoin="round" stroke-miterlimit="10" d="
			M176.7,339.7c-6.4,0-12.5-1.7-18-4.8c-2.7-1.6-5.2-3.5-7.5-5.7c-2.2-2.2-4.3-4.6-6-7.1c-3.5-5-5.8-10.4-7.1-14.4
			c-0.7-2-1.1-3.8-1.4-5c-0.3-1.2-0.4-1.9-0.4-1.9s0.5-0.5,1.4-1.3c0.9-0.8,2.2-2,4-3.2c3.5-2.5,8.5-5.5,14.3-7.5
			c1.4-0.5,2.9-1,4.4-1.3c1.5-0.4,3.1-0.7,4.6-0.9c3.1-0.4,6.3-0.5,9.4-0.2c3.1,0.3,6.2,1,9.1,2.2c2.9,1.1,5.7,2.6,8.3,4.5"/>
	</g>
	<g>
		
			<path fill="#FFFFFF" stroke="#000000" stroke-width="2.8346" stroke-linecap="round" stroke-linejoin="round" stroke-miterlimit="10" d="
			M192.2,292.5c-2.6-1.9-4.9-4.1-6.9-6.5c-2-2.4-3.6-5.1-4.9-8c-1.3-2.9-2.1-5.9-2.7-9c-0.6-3.1-0.7-6.2-0.7-9.3
			c0.2-6.1,1.4-11.8,2.7-15.8c0.7-2,1.3-3.7,1.8-4.9c0.5-1.1,0.8-1.7,0.8-1.7s0.7-0.1,1.9-0.2c1.2-0.1,3-0.3,5.2-0.2
			c2.2,0,4.6,0.1,7.4,0.5c1.4,0.2,2.8,0.4,4.2,0.7c1.4,0.3,2.9,0.7,4.4,1.1c1.5,0.4,2.9,0.9,4.4,1.5c1.5,0.6,2.9,1.3,4.3,2
			c2.8,1.4,5.4,3.3,7.7,5.4c2.3,2.1,4.4,4.5,6.1,7.1c1.7,2.6,3.1,5.5,4.1,8.6"/>
	</g>
	<g>
		
			<path fill="#FFFFFF" stroke="#000000" stroke-width="2.8346" stroke-linecap="round" stroke-linejoin="round" stroke-miterlimit="10" d="
			M232.5,263.5c-1-3.1-1.6-6.2-1.7-9.3c-0.2-3.1,0.1-6.2,0.8-9.3c0.7-3.1,1.7-6,3.1-8.9c1.4-2.9,3.1-5.4,4.9-7.9
			c1.9-2.4,3.9-4.6,5.9-6.5c2-1.8,4-3.5,5.7-4.7c3.5-2.5,6-3.8,6-3.8s2.5,1.4,6,3.8c1.7,1.3,3.7,2.9,5.7,4.7c2,1.9,4,4.1,5.9,6.5
			c1.8,2.5,3.5,5.1,4.9,7.9c1.4,2.9,2.4,5.8,3.1,8.9c0.7,3.1,0.9,6.2,0.8,9.3c-0.2,3.1-0.8,6.3-1.7,9.3"/>
	</g>
	<g>
		
			<path fill="#FFFFFF" stroke="#000000" stroke-width="2.8346" stroke-linecap="round" stroke-linejoin="round" stroke-miterlimit="10" d="
			M282.1,263.7c1-3.1,2.4-5.9,4.1-8.6c1.7-2.6,3.8-5,6.1-7.1c2.3-2.1,5-3.9,7.7-5.4c1.4-0.7,2.8-1.4,4.3-2c1.5-0.6,2.9-1.1,4.4-1.5
			c1.5-0.4,2.9-0.8,4.4-1.1c1.4-0.3,2.8-0.5,4.2-0.7c2.7-0.4,5.2-0.4,7.4-0.5c2.2,0,3.9,0.1,5.2,0.2c1.2,0.1,1.9,0.2,1.9,0.2
			s0.3,0.6,0.8,1.7c0.5,1.2,1.1,2.8,1.8,4.9c1.3,4.1,2.6,9.8,2.7,15.8c0,3.1-0.1,6.2-0.7,9.3c-0.6,3.1-1.4,6.1-2.7,9
			c-1.3,2.9-2.9,5.6-4.9,8c-2,2.4-4.3,4.6-6.9,6.5"/>
	</g>
	<g>
		
			<path fill="#FFFFFF" stroke="#000000" stroke-width="2.8346" stroke-linecap="round" stroke-linejoin="round" stroke-miterlimit="10" d="
			M322.2,293c2.6-1.9,5.4-3.4,8.3-4.5c2.9-1.1,6-1.9,9.1-2.2c3.1-0.3,6.3-0.3,9.4,0.2c1.6,0.2,3.1,0.5,4.6,0.9
			c1.5,0.4,3,0.8,4.4,1.3c5.8,2,10.8,5,14.3,7.5c1.8,1.2,3.1,2.4,4,3.2c0.9,0.8,1.4,1.3,1.4,1.3s-0.1,0.7-0.4,1.9
			c-0.3,1.2-0.8,2.9-1.4,5c-1.3,4.1-3.6,9.4-7.1,14.4c-1.7,2.5-3.8,4.9-6,7.1c-2.3,2.2-4.8,4.1-7.5,5.7c-5.5,3.2-11.6,4.8-18,4.8"/>
	</g>
</g>
<g>
	<g>
		<path fill="#FFFFFF" stroke="#000000" stroke-width="2.8346" stroke-miterlimit="10" d="M337.3,340.3c6.4,0,12.5,1.7,18,4.8
			c2.7,1.6,5.2,3.5,7.5,5.7c2.2,2.2,4.3,4.6,6,7.1c3.5,5,5.8,10.4,7.1,14.4c0.7,2,1.1,3.8,1.4,5c0.3,1.2,0.4,1.9,0.4,1.9
			s-0.5,0.5-1.4,1.3c-0.9,0.8-2.2,2-4,3.2c-3.5,2.5-8.5,5.5-14.3,7.5c-1.4,0.5-2.9,1-4.4,1.3c-1.5,0.4-3.1,0.7-4.6,0.9
			c-3.1,0.4-6.3,0.5-9.4,0.2c-3.1-0.3-6.2-1-9.1-2.2c-2.9-1.1-5.7-2.6-8.3-4.5"/>
	</g>
	<g>
		<path fill="#FFFFFF" stroke="#000000" stroke-width="2.8346" stroke-miterlimit="10" d="M321.8,387.5c2.6,1.9,4.9,4.1,6.9,6.5
			c2,2.4,3.6,5.1,4.9,8c1.3,2.9,2.1,5.9,2.7,9c0.6,3.1,0.7,6.2,0.7,9.3c-0.2,6.1-1.4,11.8-2.7,15.8c-0.7,2-1.3,3.7-1.8,4.9
			c-0.5,1.1-0.8,1.7-0.8,1.7s-0.7,0.1-1.9,0.2c-1.2,0.1-3,0.3-5.2,0.2c-2.2,0-4.6-0.1-7.4-0.5c-1.4-0.2-2.8-0.4-4.2-0.7
			c-1.4-0.3-2.9-0.7-4.4-1.1c-1.5-0.4-2.9-0.9-4.4-1.5c-1.5-0.6-2.9-1.3-4.3-2c-2.8-1.4-5.4-3.3-7.7-5.4c-2.3-2.1-4.4-4.5-6.1-7.1
			c-1.7-2.6-3.1-5.5-4.1-8.6"/>
	</g>
	<g>
		<path fill="#FFFFFF" stroke="#000000" stroke-width="2.8346" stroke-miterlimit="10" d="M281.5,416.6c1,3.1,1.6,6.2,1.7,9.3
			c0.2,3.1-0.1,6.2-0.8,9.3c-0.7,3.1-1.7,6-3.1,8.9c-1.4,2.9-3.1,5.4-4.9,7.9c-1.9,2.4-3.9,4.6-5.9,6.5c-2,1.8-4,3.5-5.7,4.7
			c-3.5,2.5-6,3.8-6,3.8s-2.5-1.4-6-3.8c-1.7-1.3-3.7-2.9-5.7-4.7c-2-1.9-4-4.1-5.9-6.5c-1.8-2.5-3.5-5.1-4.9-7.9
			c-1.4-2.9-2.4-5.8-3.1-8.9c-0.7-3.1-0.9-6.2-0.8-9.3c0.2-3.1,0.8-6.3,1.7-9.3"/>
	</g>
	<g>
		<path fill="#FFFFFF" stroke="#000000" stroke-width="2.8346" stroke-miterlimit="10" d="M231.8,416.4c-1,3.1-2.4,5.9-4.1,8.6
			c-1.7,2.6-3.8,5-6.1,7.1c-2.3,2.1-5,3.9-7.7,5.4c-1.4,0.7-2.8,1.4-4.3,2c-1.5,0.6-2.9,1.1-4.4,1.5c-1.5,0.4-2.9,0.8-4.4,1.1
			c-1.4,0.3-2.8,0.5-4.2,0.7c-2.7,0.4-5.2,0.4-7.4,0.5c-2.2,0-3.9-0.1-5.2-0.2c-1.2-0.1-1.9-0.2-1.9-0.2s-0.3-0.6-0.8-1.7
			c-0.5-1.2-1.1-2.8-1.8-4.9c-1.3-4.1-2.6-9.8-2.7-15.8c0-3.1,0.1-6.2,0.7-9.3c0.6-3.1,1.4-6.1,2.7-9c1.3-2.9,2.9-5.6,4.9-8
			c2-2.4,4.3-4.6,6.9-6.5"/>
	</g>
	<g>
		<path fill="#FFFFFF" stroke="#000000" stroke-width="2.8346" stroke-miterlimit="10" d="M191.8,387c-2.6,1.9-5.4,3.4-8.3,4.5
			c-2.9,1.1-6,1.9-9.1,2.2c-3.1,0.3-6.3,0.3-9.4-0.2c-1.6-0.2-3.1-0.5-4.6-0.9c-1.5-0.4-3-0.8-4.4-1.3c-5.8-2-10.8-5-14.3-7.5
			c-1.8-1.2-3.1-2.4-4-3.2c-0.9-0.8-1.4-1.3-1.4-1.3s0.1-0.7,0.4-1.9c0.3-1.2,0.8-2.9,1.4-5c1.3-4.1,3.6-9.4,7.1-14.4
			c1.7-2.5,3.8-4.9,6-7.1c2.3-2.2,4.8-4.1,7.5-5.7c5.5-3.2,11.6-4.8,18-4.8"/>
	</g>
	<g>
		<path fill="#FFFFFF" stroke="#000000" stroke-width="2.8346" stroke-miterlimit="10" d="M176.6,339.7c-6.4,0-12.5-1.7-18-4.8
			c-2.7-1.6-5.2-3.5-7.5-5.7c-2.2-2.2-4.3-4.6-6-7.1c-3.5-5-5.8-10.4-7.1-14.4c-0.7-2-1.1-3.8-1.4-5c-0.3-1.2-0.4-1.9-0.4-1.9
			s0.5-0.5,1.4-1.3c0.9-0.8,2.2-2,4-3.2c3.5-2.5,8.5-5.5,14.3-7.5c1.4-0.5,2.9-1,4.4-1.3c1.5-0.4,3.1-0.7,4.6-0.9
			c3.1-0.4,6.3-0.5,9.4-0.2c3.1,0.3,6.2,1,9.1,2.2c2.9,1.1,5.7,2.6,8.3,4.5"/>
	</g>
	<g>
		<path fill="#FFFFFF" stroke="#000000" stroke-width="2.8346" stroke-miterlimit="10" d="M192.1,292.6c-2.6-1.9-4.9-4.1-6.9-6.5
			c-2-2.4-3.6-5.1-4.9-8c-1.3-2.9-2.1-5.9-2.7-9c-0.6-3.1-0.7-6.2-0.7-9.3c0.2-6.1,1.4-11.8,2.7-15.8c0.7-2,1.3-3.7,1.8-4.9
			c0.5-1.1,0.8-1.7,0.8-1.7s0.7-0.1,1.9-0.2c1.2-0.1,3-0.3,5.2-0.2c2.2,0,4.6,0.1,7.4,0.5c1.4,0.2,2.8,0.4,4.2,0.7
			c1.4,0.3,2.9,0.7,4.4,1.1c1.5,0.4,2.9,0.9,4.4,1.5c1.5,0.6,2.9,1.3,4.3,2c2.8,1.4,5.4,3.3,7.7,5.4c2.3,2.1,4.4,4.5,6.1,7.1
			c1.7,2.6,3.1,5.5,4.1,8.6"/>
	</g>
	<g>
		<path fill="#FFFFFF" stroke="#000000" stroke-width="2.8346" stroke-miterlimit="10" d="M232.4,263.5c-1-3.1-1.6-6.2-1.7-9.3
			c-0.2-3.1,0.1-6.2,0.8-9.3c0.7-3.1,1.7-6,3.1-8.9c1.4-2.9,3.1-5.4,4.9-7.9c1.9-2.4,3.9-4.6,5.9-6.5c2-1.8,4-3.5,5.7-4.7
			c3.5-2.5,6-3.8,6-3.8s2.5,1.4,6,3.8c1.7,1.3,3.7,2.9,5.7,4.7c2,1.9,4,4.1,5.9,6.5c1.8,2.5,3.5,5.1,4.9,7.9
			c1.4,2.9,2.4,5.8,3.1,8.9c0.7,3.1,0.9,6.2,0.8,9.3c-0.2,3.1-0.8,6.3-1.7,9.3"/>
	</g>
	<g>
		<path fill="#FFFFFF" stroke="#000000" stroke-width="2.8346" stroke-miterlimit="10" d="M282.1,263.7c1-3.1,2.4-5.9,4.1-8.6
			c1.7-2.6,3.8-5,6.1-7.1c2.3-2.1,5-3.9,7.7-5.4c1.4-0.7,2.8-1.4,4.3-2c1.5-0.6,2.9-1.1,4.4-1.5c1.5-0.4,2.9-0.8,4.4-1.1
			c1.4-0.3,2.8-0.5,4.2-0.7c2.7-0.4,5.2-0.4,7.4-0.5c2.2,0,3.9,0.1,5.2,0.2c1.2,0.1,1.9,0.2,1.9,0.2s0.3,0.6,0.8,1.7
			c0.5,1.2,1.1,2.8,1.8,4.9c1.3,4.1,2.6,9.8,2.7,15.8c0,3.1-0.1,6.2-0.7,9.3c-0.6,3.1-1.4,6.1-2.7,9c-1.3,2.9-2.9,5.6-4.9,8
			c-2,2.4-4.3,4.6-6.9,6.5"/>
	</g>
	<g>
		<path fill="#FFFFFF" stroke="#000000" stroke-width="2.8346" stroke-miterlimit="10" d="M322.2,293.1c2.6-1.9,5.4-3.4,8.3-4.5
			c2.9-1.1,6-1.9,9.1-2.2c3.1-0.3,6.3-0.3,9.4,0.2c1.6,0.2,3.1,0.5,4.6,0.9c1.5,0.4,3,0.8,4.4,1.3c5.8,2,10.8,5,14.3,7.5
			c1.8,1.2,3.1,2.4,4,3.2c0.9,0.8,1.4,1.3,1.4,1.3s-0.1,0.7-0.4,1.9c-0.3,1.2-0.8,2.9-1.4,5c-1.3,4.1-3.6,9.4-7.1,14.4
			c-1.7,2.5-3.8,4.9-6,7.1c-2.3,2.2-4.8,4.1-7.5,5.7c-5.5,3.2-11.6,4.8-18,4.8"/>
	</g>
</g>
<g>
	<g>
		<path d="M321.8,340.3c5.2,0,10.1,1.3,14.5,3.9c2.2,1.3,4.2,2.8,6.1,4.6c1.8,1.7,3.5,3.7,4.9,5.7c2.8,4,4.7,8.3,5.7,11.6
			c0.5,1.6,0.9,3,1.1,4c0.2,1,0.3,1.5,0.3,1.5s-0.4,0.4-1.2,1.1c-0.8,0.7-1.8,1.6-3.3,2.6c-2.8,2-6.8,4.5-11.5,6.1
			c-1.2,0.4-2.3,0.8-3.6,1.1c-1.2,0.3-2.5,0.5-3.7,0.7c-2.5,0.4-5.1,0.4-7.6,0.1c-2.5-0.2-5-0.8-7.3-1.7c-2.4-0.9-4.6-2.1-6.7-3.6"
			/>
	</g>
	<g>
		<path d="M309.3,378.3c2.1,1.5,4,3.3,5.5,5.3c1.6,2,2.9,4.1,3.9,6.4c1,2.3,1.7,4.7,2.2,7.3c0.5,2.5,0.6,5,0.6,7.5
			c-0.1,4.9-1.1,9.5-2.2,12.8c-0.5,1.6-1.1,3-1.4,3.9c-0.4,0.9-0.7,1.4-0.7,1.4s-0.6,0.1-1.6,0.2c-1,0.1-2.4,0.2-4.1,0.2
			c-1.7,0-3.7-0.1-6-0.4c-1.1-0.1-2.2-0.3-3.4-0.6c-1.1-0.2-2.3-0.6-3.5-0.9c-1.2-0.4-2.3-0.7-3.5-1.2c-1.2-0.5-2.3-1-3.4-1.6
			c-2.2-1.2-4.4-2.7-6.2-4.3c-1.9-1.7-3.5-3.6-4.9-5.7c-1.4-2.1-2.5-4.4-3.3-6.9"/>
	</g>
	<g>
		<path d="M276.8,401.7c0.8,2.5,1.3,5,1.4,7.5c0.1,2.5-0.1,5-0.6,7.5c-0.5,2.5-1.4,4.8-2.5,7.2c-1.1,2.3-2.5,4.4-4,6.4
			c-1.5,1.9-3.1,3.7-4.7,5.2c-1.6,1.5-3.2,2.8-4.6,3.8c-2.8,2-4.8,3.1-4.8,3.1s-2-1.1-4.8-3.1c-1.4-1-3-2.3-4.6-3.8
			c-1.6-1.5-3.2-3.3-4.7-5.2c-1.5-2-2.9-4.1-4-6.4c-1.1-2.3-2-4.7-2.5-7.2c-0.5-2.5-0.7-5-0.6-7.5c0.1-2.5,0.6-5,1.4-7.5"/>
	</g>
	<g>
		<path d="M236.8,401.5c-0.8,2.5-1.9,4.8-3.3,6.9c-1.4,2.1-3,4.1-4.9,5.7c-1.9,1.7-4,3.2-6.2,4.3c-1.1,0.6-2.3,1.1-3.4,1.6
			c-1.2,0.5-2.3,0.9-3.5,1.2c-1.2,0.3-2.4,0.7-3.5,0.9c-1.1,0.2-2.3,0.4-3.4,0.6c-2.2,0.3-4.2,0.4-6,0.4c-1.8,0-3.2-0.1-4.1-0.2
			c-1-0.1-1.6-0.2-1.6-0.2s-0.3-0.5-0.7-1.4c-0.4-0.9-0.9-2.3-1.4-3.9c-1.1-3.3-2.1-7.9-2.2-12.8c0-2.5,0.1-5,0.6-7.5
			c0.5-2.5,1.2-4.9,2.2-7.3c1-2.3,2.3-4.5,3.9-6.4c1.6-2,3.5-3.7,5.5-5.3"/>
	</g>
	<g>
		<path d="M204.5,377.9c-2.1,1.5-4.3,2.7-6.7,3.6c-2.4,0.9-4.8,1.5-7.3,1.7c-2.5,0.3-5.1,0.2-7.6-0.1c-1.3-0.2-2.5-0.4-3.7-0.7
			c-1.2-0.3-2.4-0.7-3.6-1.1c-4.7-1.6-8.7-4-11.5-6.1c-1.4-1-2.5-1.9-3.3-2.6c-0.8-0.7-1.2-1.1-1.2-1.1s0.1-0.6,0.3-1.5
			c0.2-1,0.6-2.4,1.1-4c1.1-3.3,2.9-7.6,5.7-11.6c1.4-2,3.1-4,4.9-5.7c1.9-1.8,3.9-3.3,6.1-4.6c4.4-2.6,9.3-3.9,14.5-3.9"/>
	</g>
	<g>
		<path d="M192.3,339.8c-5.2,0-10.1-1.3-14.5-3.9c-2.2-1.3-4.2-2.8-6.1-4.6c-1.8-1.7-3.5-3.7-4.9-5.7c-2.8-4-4.7-8.3-5.7-11.6
			c-0.5-1.6-0.9-3-1.1-4c-0.2-1-0.3-1.5-0.3-1.5s0.4-0.4,1.2-1.1c0.8-0.7,1.8-1.6,3.3-2.6c2.8-2,6.8-4.5,11.5-6.1
			c1.2-0.4,2.3-0.8,3.6-1.1c1.2-0.3,2.5-0.5,3.7-0.7c2.5-0.4,5.1-0.4,7.6-0.1c2.5,0.2,5,0.8,7.3,1.7c2.4,0.9,4.6,2.1,6.7,3.6"/>
	</g>
	<g>
		<path d="M204.8,301.8c-2.1-1.5-4-3.3-5.5-5.3c-1.6-2-2.9-4.1-3.9-6.4c-1-2.3-1.7-4.7-2.2-7.3c-0.5-2.5-0.6-5-0.6-7.5
			c0.1-4.9,1.1-9.5,2.2-12.8c0.5-1.6,1.1-3,1.4-3.9c0.4-0.9,0.7-1.4,0.7-1.4s0.6-0.1,1.6-0.2c1-0.1,2.4-0.2,4.1-0.2
			c1.7,0,3.7,0.1,6,0.4c1.1,0.1,2.2,0.3,3.4,0.6c1.1,0.2,2.3,0.6,3.5,0.9c1.2,0.4,2.3,0.7,3.5,1.2c1.2,0.5,2.3,1,3.4,1.6
			c2.2,1.2,4.4,2.7,6.2,4.3c1.9,1.7,3.5,3.6,4.9,5.7c1.4,2.1,2.5,4.4,3.3,6.9"/>
	</g>
	<g>
		<path d="M237.2,278.4c-0.8-2.5-1.3-5-1.4-7.5c-0.1-2.5,0.1-5,0.6-7.5c0.5-2.5,1.4-4.8,2.5-7.2c1.1-2.3,2.5-4.4,4-6.4
			c1.5-1.9,3.1-3.7,4.7-5.2c1.6-1.5,3.2-2.8,4.6-3.8c2.8-2,4.8-3.1,4.8-3.1s2,1.1,4.8,3.1c1.4,1,3,2.3,4.6,3.8
			c1.6,1.5,3.2,3.3,4.7,5.2c1.5,2,2.9,4.1,4,6.4c1.1,2.3,2,4.7,2.5,7.2c0.5,2.5,0.7,5,0.6,7.5c-0.1,2.5-0.6,5-1.4,7.5"/>
	</g>
	<g>
		<path d="M277.3,278.5c0.8-2.5,1.9-4.8,3.3-6.9c1.4-2.1,3-4.1,4.9-5.7c1.9-1.7,4-3.2,6.2-4.3c1.1-0.6,2.3-1.1,3.4-1.6
			c1.2-0.5,2.3-0.9,3.5-1.2c1.2-0.3,2.4-0.7,3.5-0.9c1.1-0.2,2.3-0.4,3.4-0.6c2.2-0.3,4.2-0.4,6-0.4c1.8,0,3.2,0.1,4.1,0.2
			c1,0.1,1.6,0.2,1.6,0.2s0.3,0.5,0.7,1.4c0.4,0.9,0.9,2.3,1.4,3.9c1.1,3.3,2.1,7.9,2.2,12.8c0,2.5-0.1,5-0.6,7.5
			c-0.5,2.5-1.2,4.9-2.2,7.3c-1,2.3-2.3,4.5-3.9,6.4c-1.6,2-3.5,3.7-5.5,5.3"/>
	</g>
	<g>
		<path d="M309.5,302.2c2.1-1.5,4.3-2.7,6.7-3.6c2.4-0.9,4.8-1.5,7.3-1.7c2.5-0.3,5.1-0.2,7.6,0.1c1.3,0.2,2.5,0.4,3.7,0.7
			c1.2,0.3,2.4,0.7,3.6,1.1c4.7,1.6,8.7,4,11.5,6.1c1.4,1,2.5,1.9,3.3,2.6c0.8,0.7,1.2,1.1,1.2,1.1s-0.1,0.6-0.3,1.5
			c-0.2,1-0.6,2.4-1.1,4c-1.1,3.3-2.9,7.6-5.7,11.6c-1.4,2-3.1,4-4.9,5.7c-1.9,1.8-3.9,3.3-6.1,4.6c-4.4,2.6-9.3,3.9-14.5,3.9"/>
	</g>
</g>
<g>
	<g>
		
			<path fill="#FFFFFF" stroke="#000000" stroke-width="2.8346" stroke-linecap="round" stroke-linejoin="round" stroke-miterlimit="10" d="
			M312.5,340.2c4.4,0,8.7,1.2,12.5,3.3c1.8,1.1,3.6,2.4,5.2,3.9c1.5,1.5,3,3.2,4.2,4.9c2.4,3.5,4,7.2,4.9,10c0.5,1.4,0.8,2.6,1,3.4
			c0.2,0.8,0.3,1.3,0.3,1.3s-0.4,0.3-1,0.9c-0.7,0.6-1.6,1.4-2.8,2.2c-2.4,1.7-5.8,3.8-9.8,5.2c-1,0.3-2,0.7-3,0.9
			c-1.1,0.2-2.1,0.5-3.2,0.6c-2.1,0.3-4.4,0.3-6.5,0.1c-2.1-0.2-4.3-0.7-6.3-1.5c-2-0.8-3.9-1.8-5.7-3.1"/>
	</g>
	<g>
		
			<path fill="#FFFFFF" stroke="#000000" stroke-width="2.8346" stroke-linecap="round" stroke-linejoin="round" stroke-miterlimit="10" d="
			M301.8,372.8c1.8,1.3,3.4,2.8,4.7,4.5c1.3,1.7,2.5,3.5,3.4,5.5c0.9,2,1.5,4.1,1.9,6.2c0.4,2.1,0.5,4.3,0.5,6.4
			c-0.1,4.2-1,8.1-1.9,10.9c-0.5,1.4-0.9,2.6-1.2,3.4c-0.3,0.8-0.6,1.2-0.6,1.2s-0.5,0.1-1.3,0.1c-0.9,0.1-2.1,0.2-3.6,0.2
			c-1.5,0-3.2-0.1-5.1-0.3c-0.9-0.1-1.9-0.3-2.9-0.5c-1-0.2-2-0.5-3-0.8c-1-0.3-2-0.6-3-1c-1-0.4-2-0.9-2.9-1.4
			c-1.9-1-3.7-2.3-5.3-3.7c-1.6-1.4-3-3.1-4.2-4.9c-1.2-1.8-2.1-3.8-2.8-5.9"/>
	</g>
	<g>
		
			<path fill="#FFFFFF" stroke="#000000" stroke-width="2.8346" stroke-linecap="round" stroke-linejoin="round" stroke-miterlimit="10" d="
			M274,392.9c0.7,2.1,1.1,4.3,1.2,6.4c0.1,2.1-0.1,4.3-0.5,6.4c-0.4,2.1-1.2,4.2-2.1,6.1c-0.9,2-2.1,3.8-3.4,5.5
			c-1.3,1.6-2.7,3.2-4,4.5c-1.4,1.3-2.7,2.4-3.9,3.3c-2.4,1.7-4.1,2.6-4.1,2.6s-1.7-0.9-4.1-2.6c-1.2-0.9-2.6-2-3.9-3.3
			c-1.4-1.3-2.8-2.8-4-4.5c-1.3-1.7-2.4-3.5-3.4-5.5c-0.9-2-1.7-4-2.1-6.1c-0.5-2.1-0.6-4.3-0.5-6.4c0.1-2.1,0.5-4.3,1.2-6.4"/>
	</g>
	<g>
		
			<path fill="#FFFFFF" stroke="#000000" stroke-width="2.8346" stroke-linecap="round" stroke-linejoin="round" stroke-miterlimit="10" d="
			M239.7,392.8c-0.7,2.1-1.6,4.1-2.8,5.9c-1.2,1.8-2.6,3.5-4.2,4.9c-1.6,1.4-3.4,2.7-5.3,3.7c-1,0.5-1.9,1-2.9,1.4c-1,0.4-2,0.7-3,1
			c-1,0.3-2,0.6-3,0.8c-1,0.2-2,0.4-2.9,0.5c-1.9,0.3-3.6,0.3-5.1,0.3c-1.5,0-2.7-0.1-3.6-0.2c-0.9-0.1-1.3-0.1-1.3-0.1
			s-0.2-0.4-0.6-1.2c-0.3-0.8-0.8-1.9-1.2-3.4c-0.9-2.8-1.8-6.8-1.9-10.9c0-2.1,0.1-4.3,0.5-6.4c0.4-2.2,1-4.2,1.9-6.2
			c0.9-2,2-3.8,3.4-5.5c1.3-1.7,3-3.2,4.7-4.5"/>
	</g>
	<g>
		
			<path fill="#FFFFFF" stroke="#000000" stroke-width="2.8346" stroke-linecap="round" stroke-linejoin="round" stroke-miterlimit="10" d="
			M212,372.5c-1.8,1.3-3.7,2.4-5.7,3.1c-2,0.8-4.2,1.3-6.3,1.5c-2.1,0.2-4.4,0.2-6.5-0.1c-1.1-0.1-2.1-0.4-3.2-0.6
			c-1-0.3-2.1-0.6-3-0.9c-4-1.4-7.4-3.4-9.8-5.2c-1.2-0.9-2.1-1.7-2.8-2.2c-0.6-0.6-1-0.9-1-0.9s0.1-0.5,0.3-1.3
			c0.2-0.8,0.5-2,1-3.4c0.9-2.8,2.5-6.5,4.9-10c1.2-1.7,2.6-3.4,4.2-4.9c1.6-1.5,3.3-2.8,5.2-3.9c3.8-2.2,8-3.3,12.5-3.3"/>
	</g>
	<g>
		
			<path fill="#FFFFFF" stroke="#000000" stroke-width="2.8346" stroke-linecap="round" stroke-linejoin="round" stroke-miterlimit="10" d="
			M201.5,339.8c-4.4,0-8.7-1.2-12.5-3.3c-1.8-1.1-3.6-2.4-5.2-3.9c-1.5-1.5-3-3.2-4.2-4.9c-2.4-3.5-4-7.2-4.9-10
			c-0.5-1.4-0.8-2.6-1-3.4c-0.2-0.8-0.3-1.3-0.3-1.3s0.4-0.3,1-0.9c0.7-0.6,1.6-1.4,2.8-2.2c2.4-1.7,5.8-3.8,9.8-5.2
			c1-0.3,2-0.7,3-0.9c1.1-0.2,2.1-0.5,3.2-0.6c2.1-0.3,4.4-0.3,6.5-0.1c2.1,0.2,4.3,0.7,6.3,1.5c2,0.8,3.9,1.8,5.7,3.1"/>
	</g>
	<g>
		
			<path fill="#FFFFFF" stroke="#000000" stroke-width="2.8346" stroke-linecap="round" stroke-linejoin="round" stroke-miterlimit="10" d="
			M212.2,307.3c-1.8-1.3-3.4-2.8-4.7-4.5c-1.3-1.7-2.5-3.5-3.4-5.5c-0.9-2-1.5-4.1-1.9-6.2c-0.4-2.1-0.5-4.3-0.5-6.4
			c0.1-4.2,1-8.1,1.9-10.9c0.5-1.4,0.9-2.6,1.2-3.4c0.3-0.8,0.6-1.2,0.6-1.2s0.5-0.1,1.3-0.1c0.9-0.1,2.1-0.2,3.6-0.2
			c1.5,0,3.2,0.1,5.1,0.3c0.9,0.1,1.9,0.3,2.9,0.5c1,0.2,2,0.5,3,0.8c1,0.3,2,0.6,3,1c1,0.4,2,0.9,2.9,1.4c1.9,1,3.7,2.3,5.3,3.7
			c1.6,1.4,3,3.1,4.2,4.9c1.2,1.8,2.1,3.8,2.8,5.9"/>
	</g>
	<g>
		
			<path fill="#FFFFFF" stroke="#000000" stroke-width="2.8346" stroke-linecap="round" stroke-linejoin="round" stroke-miterlimit="10" d="
			M240.1,287.2c-0.7-2.1-1.1-4.3-1.2-6.4c-0.1-2.1,0.1-4.3,0.5-6.4c0.4-2.1,1.2-4.2,2.1-6.1c0.9-2,2.1-3.8,3.4-5.5
			c1.3-1.6,2.7-3.2,4-4.5c1.4-1.3,2.7-2.4,3.9-3.3c2.4-1.7,4.1-2.6,4.1-2.6s1.7,0.9,4.1,2.6c1.2,0.9,2.6,2,3.9,3.3
			c1.4,1.3,2.8,2.8,4,4.5c1.3,1.7,2.4,3.5,3.4,5.5c0.9,2,1.7,4,2.1,6.1c0.5,2.1,0.6,4.3,0.5,6.4c-0.1,2.1-0.5,4.3-1.2,6.4"/>
	</g>
	<g>
		
			<path fill="#FFFFFF" stroke="#000000" stroke-width="2.8346" stroke-linecap="round" stroke-linejoin="round" stroke-miterlimit="10" d="
			M274.4,287.3c0.7-2.1,1.6-4.1,2.8-5.9c1.2-1.8,2.6-3.5,4.2-4.9c1.6-1.4,3.4-2.7,5.3-3.7c1-0.5,1.9-1,2.9-1.4c1-0.4,2-0.7,3-1
			c1-0.3,2-0.6,3-0.8c1-0.2,2-0.4,2.9-0.5c1.9-0.3,3.6-0.3,5.1-0.3c1.5,0,2.7,0.1,3.6,0.2c0.9,0.1,1.3,0.1,1.3,0.1s0.2,0.4,0.6,1.2
			c0.3,0.8,0.8,1.9,1.2,3.4c0.9,2.8,1.8,6.8,1.9,10.9c0,2.1-0.1,4.3-0.5,6.4c-0.4,2.2-1,4.2-1.9,6.2c-0.9,2-2,3.8-3.4,5.5
			c-1.3,1.7-3,3.2-4.7,4.5"/>
	</g>
	<g>
		
			<path fill="#FFFFFF" stroke="#000000" stroke-width="2.8346" stroke-linecap="round" stroke-linejoin="round" stroke-miterlimit="10" d="
			M302,307.6c1.8-1.3,3.7-2.4,5.7-3.1c2-0.8,4.2-1.3,6.3-1.5c2.1-0.2,4.4-0.2,6.5,0.1c1.1,0.1,2.1,0.4,3.2,0.6c1,0.3,2.1,0.6,3,0.9
			c4,1.4,7.4,3.4,9.8,5.2c1.2,0.9,2.1,1.7,2.8,2.2c0.6,0.6,1,0.9,1,0.9s-0.1,0.5-0.3,1.3c-0.2,0.8-0.5,2-1,3.4
			c-0.9,2.8-2.5,6.5-4.9,10c-1.2,1.7-2.6,3.4-4.2,4.9c-1.6,1.5-3.3,2.8-5.2,3.9c-3.8,2.2-8,3.3-12.5,3.3"/>
	</g>
</g>
<line fill="none" stroke="#000000" stroke-width="2.8346" stroke-linecap="round" stroke-linejoin="round" stroke-miterlimit="10" x1="190" y1="129.8" x2="325" y2="551.2"/>
<line fill="none" stroke="#000000" stroke-width="2.8346" stroke-linecap="round" stroke-linejoin="round" stroke-miterlimit="10" x1="326.3" y1="131" x2="188.3" y2="550.5"/>
<line fill="none" stroke="#000000" stroke-width="2.8346" stroke-linecap="round" stroke-linejoin="round" stroke-miterlimit="10" x1="79" y1="209.5" x2="436" y2="471.2"/>
<line fill="none" stroke="#000000" stroke-width="2.8346" stroke-linecap="round" stroke-linejoin="round" stroke-miterlimit="10" x1="36" y1="338.4" x2="478.7" y2="340.4"/>
<line fill="none" stroke="#000000" stroke-width="2.8346" stroke-linecap="round" stroke-linejoin="round" stroke-miterlimit="10" x1="437" y1="211" x2="78.3" y2="469.3"/>
<polygon fill="#FFFFFF" stroke="#000000" stroke-width="2.8346" stroke-linecap="round" stroke-linejoin="round" stroke-miterlimit="10" points="
	308.4,377.4 277.5,400.8 238.8,401.5 207.1,379.4 194.4,342.8 205.6,305.7 236.5,282.4 275.2,281.6 307,303.8 319.6,340.4 "/>
</svg>
